<?xml version="1.0" encoding="utf-8"?>
<!-- Generator: Adobe Illustrator 27.5.0, SVG Export Plug-In . SVG Version: 6.00 Build 0)  -->
<svg version="1.1" xmlns="http://www.w3.org/2000/svg" xmlns:xlink="http://www.w3.org/1999/xlink" x="0px" y="0px"
	 viewBox="0 0 500 500" style="enable-background:new 0 0 500 500;" xml:space="preserve">
<g id="Floor">
	<path style="fill:#F5F5F5;" d="M409.038,259.775c-88.41-51.043-231.282-51.043-319.117,0.001
		C2.081,310.824,2.546,393.581,90.956,444.625c88.415,51.047,231.288,51.046,319.128-0.002
		C497.919,393.579,497.454,310.822,409.038,259.775z"/>
</g>
<g id="Shadows_1_">
	<path style="fill:#E0E0E0;" d="M115.602,430.283c6.859-3.96,17.942-3.96,24.756,0c6.814,3.96,6.778,10.38-0.08,14.34
		c-6.859,3.96-17.943,3.96-24.757,0C108.707,440.663,108.743,434.243,115.602,430.283z"/>
	<path style="fill:#E0E0E0;" d="M158.566,360.044l79.479-45.907l63.439,36.536c2.77-3.331,6.534-6.454,11.313-9.214
		c22.628-13.064,59.194-13.064,81.675,0c22.482,13.065,22.363,34.246-0.265,47.31c-4.65,2.685-9.896,4.809-15.48,6.39l6.377,3.673
		c1.925,1.109,1.927,3.886,0.003,4.997l-73.717,42.579c-3.566,2.06-7.959,2.062-11.528,0.007l-141.293-81.375
		C156.644,363.932,156.642,361.155,158.566,360.044z"/>
	<polygon style="fill:#E0E0E0;" points="297.118,233.878 51.569,376.868 40.121,370.259 285.671,227.268 	"/>
</g>
<g id="Plant">
	<g>
		<g>
			<path style="fill:#FFFFFF;" d="M111.334,407.497l16.606,0.484l16.606-0.484c0.715,11.214-1.474,22.643-4.493,28.225l-0.012-0.002
				c-0.541,1.225-1.627,2.387-3.287,3.345c-4.9,2.829-12.818,2.829-17.686,0c-1.688-0.981-2.773-2.175-3.285-3.432
				C112.787,430.022,110.622,418.656,111.334,407.497z"/>
			<g>
				<path style="fill:#EBEBEB;" d="M116.236,400.696c-6.506,3.756-6.541,9.846-0.077,13.603c6.464,3.757,16.978,3.757,23.484,0
					c6.506-3.756,6.54-9.846,0.076-13.603C133.256,396.94,122.742,396.94,116.236,400.696z"/>
			</g>
			<g>
				<path style="fill:#E0E0E0;" d="M118.809,402.191c-5.076,2.931-5.103,7.682-0.06,10.612c5.043,2.931,13.246,2.931,18.322,0
					c5.076-2.931,5.102-7.682,0.059-10.613C132.087,399.261,123.885,399.261,118.809,402.191z"/>
			</g>
			<g style="opacity:0.15;">
				<path d="M118.809,402.191c-5.076,2.931-5.103,7.682-0.06,10.612c5.043,2.931,13.246,2.931,18.322,0
					c5.076-2.931,5.102-7.682,0.059-10.613C132.087,399.261,123.885,399.261,118.809,402.191z"/>
			</g>
		</g>
		<g>
			<path style="fill:#BA68C8;" d="M100.637,336.637c37.422,12.253,37.761,37.289,29.325,55.117
				c-2.128,3.609-8.567,5.547-14.171-16.626l9.829,1.26l-11.455-5.806l-2.975-8.894l9.551,0.709l-12.123-5.099
				C104.151,343.789,100.637,336.637,100.637,336.637z"/>
			<path style="opacity:0.2;" d="M100.637,336.637c37.422,12.253,37.761,37.289,29.325,55.117
				c-2.128,3.609-8.567,5.547-14.171-16.626l9.829,1.26l-11.455-5.806l-2.975-8.894l9.551,0.709l-12.123-5.099
				C104.151,343.789,100.637,336.637,100.637,336.637z"/>
			<path style="fill:#FFFFFF;" d="M111.222,342.898c19.734,14.978,21.516,32.15,15.941,50.077
				C129.135,377.189,131.266,361.228,111.222,342.898z"/>
		</g>
		<g>
			<path style="fill:#BA68C8;" d="M164.021,362.068c-36.888,5.194-41.363,28.453-36.468,46.459
				c1.382,3.715,7.057,6.589,15.96-13.129l-9.364-0.46l11.633-3.504l4.249-7.789l-9.012-0.926l12.137-2.734
				C159.56,368.145,164.021,362.068,164.021,362.068z"/>
			<path style="opacity:0.2;fill:#FFFFFF;" d="M164.021,362.068c-36.888,5.194-41.363,28.453-36.468,46.459
				c1.382,3.715,7.057,6.589,15.96-13.129l-9.364-0.46l11.633-3.504l4.249-7.789l-9.012-0.926l12.137-2.734
				C159.56,368.145,164.021,362.068,164.021,362.068z"/>
			<path style="fill:#FFFFFF;" d="M153.123,366.14c-20.867,10.67-25.38,26.367-23.166,43.989
				C130.743,395.1,131.41,379.882,153.123,366.14z"/>
		</g>
		<g>
			<path style="fill:#BA68C8;" d="M89.841,370.784c33.829,0.553,40.465,21.016,38.069,37.792c-0.83,3.503-5.623,6.729-15.854-10.047
				l8.388-1.462l-10.877-1.856l-4.701-6.545l8.019-1.843l-11.245-1.106C94.542,375.762,89.841,370.784,89.841,370.784z"/>
			<path style="fill:#FFFFFF;" d="M100.119,373.235c20.002,7.282,25.826,20.924,25.803,37.055
				C123.531,396.832,121.227,383.19,100.119,373.235z"/>
		</g>
	</g>
</g>
<g id="Pictures">
	<g>
		<g>
			<g>
				<polygon style="fill:none;" points="407.171,79.052 439.907,97.953 439.836,122.973 407.099,104.073 				"/>
				<polygon style="fill:#F0F0F0;" points="407.171,79.052 407.099,104.073 404.067,105.835 404.148,77.307 				"/>
				<polygon style="fill:#F5F5F5;" points="439.836,122.973 439.826,126.48 404.067,105.835 407.099,104.073 				"/>
				<path style="fill:#E0E0E0;" d="M400.391,107.93l43.087,24.877l0.105-36.942l-43.087-24.877L400.391,107.93z M404.067,105.835
					l0.081-28.527l3.022,1.745l32.736,18.9l-0.071,25.02l-0.01,3.507L404.067,105.835z"/>
				<polygon style="fill:#F5F5F5;" points="400.496,70.988 403.528,69.225 446.615,94.102 443.583,95.864 				"/>
				<polygon style="fill:#F0F0F0;" points="446.615,94.102 446.511,131.044 443.478,132.806 443.583,95.864 				"/>
			</g>
			<g>
				<g style="enable-background:new    ;">
					<g>
						<polygon style="fill:#E0E0E0;" points="417.572,88.552 408.644,95.582 408.624,102.449 438.318,119.593 438.338,112.725 
							432.679,101.486 427.598,105.431 429.394,111.013 426.787,106.056 						"/>
					</g>
					<g>
						<path style="fill:#E0E0E0;" d="M427.325,92.013c-1.397-0.807-2.535-0.159-2.539,1.447c-0.005,1.606,1.125,3.562,2.522,4.369
							c1.397,0.807,2.535,0.159,2.539-1.447C429.852,94.777,428.723,92.82,427.325,92.013z"/>
					</g>
				</g>
			</g>
		</g>
		<g>
			<g>
				<polygon style="fill:none;" points="407.193,135.204 439.929,154.104 439.858,179.124 407.121,160.224 				"/>
				<polygon style="fill:#F0F0F0;" points="407.193,135.204 407.121,160.224 404.089,161.986 404.17,133.459 				"/>
				<polygon style="fill:#F5F5F5;" points="439.858,179.124 439.848,182.632 404.089,161.986 407.121,160.224 				"/>
				<path style="fill:#E0E0E0;" d="M400.413,164.081l43.087,24.877l0.105-36.942l-43.087-24.877L400.413,164.081z M404.089,161.986
					l0.081-28.527l3.022,1.745l32.736,18.9l-0.071,25.02l-0.01,3.507L404.089,161.986z"/>
				<polygon style="fill:#F5F5F5;" points="400.518,127.139 403.55,125.377 446.638,150.253 443.605,152.016 				"/>
				<polygon style="fill:#F0F0F0;" points="446.638,150.253 446.533,187.195 443.5,188.958 443.605,152.016 				"/>
			</g>
			<g>
				<g style="enable-background:new    ;">
					<g>
						<polygon style="fill:#E0E0E0;" points="417.594,144.704 408.666,151.733 408.647,158.6 438.34,175.744 438.36,168.877 
							432.701,157.637 427.62,161.582 429.416,167.164 426.809,162.208 						"/>
					</g>
					<g>
						<path style="fill:#E0E0E0;" d="M427.348,148.165c-1.398-0.807-2.535-0.159-2.539,1.447c-0.004,1.606,1.125,3.562,2.523,4.369
							c1.397,0.807,2.534,0.159,2.539-1.447C429.874,150.928,428.745,148.972,427.348,148.165z"/>
					</g>
				</g>
			</g>
		</g>
		<g>
			<path style="fill:none;" d="M356.592,94.484c-0.002-0.001-0.004-0.002-0.005-0.003c-0.391-0.186-0.783-0.376-1.175-0.576l0,0
				C355.805,94.106,356.199,94.297,356.592,94.484z"/>
			<path style="fill:none;" d="M357.017,94.689c0,0,0.001,0,0.001,0.001c-0.144-0.066-0.288-0.14-0.431-0.208
				c0.002,0.001,0.003,0.002,0.005,0.003C356.733,94.551,356.875,94.623,357.017,94.689z"/>
			<polygon style="fill:none;" points="343.236,45.733 352.188,50.902 361.285,56.154 352.188,50.902 			"/>
			<polygon style="fill:none;" points="343.152,75.242 343.175,66.937 343.197,59.348 343.175,66.937 			"/>
			<path style="fill:none;" d="M355.412,93.906c-0.082-0.042-0.163-0.078-0.245-0.12C355.249,93.827,355.33,93.864,355.412,93.906
				L355.412,93.906z"/>
			<polygon style="fill:none;" points="343.049,111.654 343.068,104.707 343.086,98.632 343.068,104.707 			"/>
			<path style="fill:none;" d="M360.493,96.119c-1.151-0.413-2.311-0.892-3.476-1.43c0,0-0.001,0-0.001-0.001
				C358.182,95.228,359.342,95.707,360.493,96.119z"/>
			<polygon style="fill:none;" points="369.822,71.362 369.746,98.043 369.702,113.504 369.746,98.043 			"/>
			<path style="fill:#EBEBEB;" d="M343.068,104.707l0.017-6.076c0.093,0.052,0.185,0.105,0.278,0.158
				c0.169,0.097,0.338,0.197,0.506,0.299c4.49,2.71,8.993,6.969,13.189,11.572c0.695,0.762,1.382,1.534,2.058,2.31
				c3.535,4.051,6.995,8.337,10.552,12.351l-0.028,9.818l-4.283-2.473C359.576,121.753,351.633,111.792,343.068,104.707z"/>
			<path style="fill:#EBEBEB;" d="M343.025,119.773l0.023-8.12c3.606,3.771,6.79,8.46,9.107,13.391L343.025,119.773z"/>
			<path style="fill:#FAFAFA;" d="M352.155,125.045c-2.316-4.931-5.5-9.62-9.107-13.391l0.02-6.946
				c8.565,7.085,16.508,17.045,22.29,27.96L352.155,125.045L352.155,125.045z"/>
			
				<line style="fill:none;stroke:#808080;stroke-width:0;stroke-linecap:round;stroke-linejoin:round;" x1="357.017" y1="94.689" x2="357.018" y2="94.689"/>
			
				<line style="fill:none;stroke:#808080;stroke-width:0;stroke-linecap:round;stroke-linejoin:round;" x1="356.592" y1="94.484" x2="356.586" y2="94.481"/>
			<path style="fill:#FAFAFA;" d="M361.112,96.336c-0.206-0.07-0.413-0.142-0.619-0.216c-1.151-0.413-2.311-0.892-3.477-1.431
				c-0.141-0.065-0.283-0.138-0.425-0.205c-0.393-0.187-0.786-0.378-1.18-0.578c-0.677-0.345-1.355-0.704-2.033-1.089
				c0.678,0.384,1.356,0.744,2.033,1.089c-0.082-0.042-0.163-0.078-0.245-0.12c-0.596-0.307-1.192-0.63-1.789-0.968
				c-0.128-0.072-0.255-0.145-0.383-0.219c-0.104-0.06-0.208-0.12-0.312-0.181c-3.083-1.807-6.165-4.015-9.164-6.567
				c-0.132-0.112-0.264-0.225-0.396-0.339l0.029-10.268c6.514,3.334,12.927,4.371,18.099,2.762c3.518-1.092,6.431-3.4,8.571-6.642
				l-0.076,26.681C366.985,97.908,364.086,97.348,361.112,96.336z"/>
			<path style="fill:#FAFAFA;" d="M357.058,110.661c-4.196-4.603-8.698-8.862-13.189-11.572c-0.169-0.102-0.338-0.202-0.506-0.299
				c-0.093-0.054-0.185-0.106-0.278-0.158l0.017-5.884c8.141,4.706,16.272,10.885,23.997,18.27c0.87,0.83,1.734,1.675,2.604,2.487
				l-0.034,11.818c-3.557-4.014-7.017-8.3-10.552-12.351C358.44,112.195,357.753,111.423,357.058,110.661z"/>
			<path style="fill:#EBEBEB;" d="M343.102,92.747l0.02-7.237c0.132,0.114,0.264,0.227,0.396,0.339c3,2.552,6.081,4.76,9.164,6.567
				c0.104,0.061,0.208,0.121,0.312,0.181c0.128,0.074,0.255,0.146,0.383,0.219c0.597,0.338,1.193,0.661,1.789,0.968
				c0.082,0.042,0.163,0.078,0.245,0.12c0.055,0.028,0.109,0.06,0.164,0.088c0.007,0.003,0.014,0.007,0.021,0.011
				c-0.007-0.004-0.014-0.007-0.021-0.011c-0.055-0.028-0.109-0.06-0.164-0.088c0.392,0.199,0.784,0.39,1.175,0.576
				c0.144,0.068,0.288,0.142,0.431,0.208c1.165,0.539,2.325,1.018,3.476,1.43c-0.218-0.078-0.436-0.159-0.655-0.242
				c0.219,0.083,0.437,0.164,0.655,0.242c0.206,0.074,0.413,0.146,0.619,0.216c2.973,1.012,5.873,1.573,8.634,1.707l-0.044,15.461
				c-0.87-0.811-1.734-1.657-2.604-2.487C359.374,103.632,351.243,97.453,343.102,92.747z"/>
			<path style="fill:#FAFAFA;" d="M343.175,66.937l0.021-7.589c4.115-0.964,7.31-3.962,8.991-8.446l9.097,5.252
				C357.68,63.295,351.135,67.24,343.175,66.937z"/>
			<path style="fill:#EBEBEB;" d="M361.25,78.004c-5.172,1.609-11.585,0.573-18.099-2.762l0.023-8.305
				c7.96,0.303,14.505-3.643,18.11-10.783l8.566,4.945l-0.029,10.262C367.681,74.604,364.768,76.911,361.25,78.004z"/>
			<path style="fill:#FFFFFF;" d="M341.522,120.627l29.619,17.1l0.219-77.477l-29.619-17.1L341.522,120.627z M365.358,132.667
				l-13.203-7.623v0l-9.13-5.271l0.023-8.12l0.02-6.946l0.017-6.076l0.017-5.884l0.02-7.237l0.029-10.268l0.023-8.305l0.021-7.589
				l0.039-13.615l8.952,5.169l9.097,5.252l8.566,4.945l-0.029,10.262l-0.076,26.681l-0.044,15.461l-0.034,11.818l-0.028,9.818
				L365.358,132.667z"/>
			<path style="fill:none;stroke:#808080;stroke-width:0;stroke-linecap:round;stroke-linejoin:round;" d="M355.596,94.004
				c-0.007-0.004-0.014-0.007-0.021-0.011"/>
			<path style="fill:none;stroke:#808080;stroke-width:0;stroke-linecap:round;stroke-linejoin:round;" d="M355.576,93.993
				c-0.055-0.028-0.109-0.06-0.164-0.088"/>
			<path style="fill:none;stroke:#808080;stroke-width:0;stroke-linecap:round;stroke-linejoin:round;" d="M353.378,92.817
				c0.678,0.384,1.356,0.744,2.033,1.089"/>
			
				<line style="fill:none;stroke:#808080;stroke-width:0;stroke-linecap:round;stroke-linejoin:round;" x1="355.412" y1="93.905" x2="355.412" y2="93.906"/>
			<path style="fill:none;stroke:#808080;stroke-width:0;stroke-linecap:round;stroke-linejoin:round;" d="M360.493,96.119
				c-0.218-0.078-0.436-0.159-0.655-0.242"/>
			<path style="fill:#EBEBEB;" d="M343.197,59.348l0.039-13.615l8.952,5.169C350.507,55.386,347.312,58.384,343.197,59.348z"/>
			<polygon style="fill:#CACACA;" points="341.522,120.627 371.141,137.727 371.134,139.785 339.742,121.661 			"/>
			<polygon style="fill:#F0F0F0;" points="341.741,43.149 341.522,120.627 339.742,121.661 339.968,42.125 			"/>
			<path style="fill:#E0E0E0;" d="M334.949,124.392l40.947,23.641l0.257-90.514l-40.947-23.64L334.949,124.392z M339.742,121.661
				l0.225-79.535l1.774,1.024l29.619,17.1l-0.219,77.477l-0.006,2.058L339.742,121.661z"/>
			<polygon style="fill:#F5F5F5;" points="335.206,33.878 338.584,32.064 379.53,55.704 376.153,57.519 			"/>
			<polygon style="fill:#F0F0F0;" points="379.53,55.704 379.274,146.218 375.896,148.033 376.153,57.519 			"/>
		</g>
	</g>
</g>
<g id="Screen">
	<g>
		<g>
			<g>
				<polygon style="fill:#BA68C8;" points="47.35,185.611 47.312,172.351 40.395,168.413 40.432,181.368 40.432,181.368 
					40.433,181.662 47.35,185.611 				"/>
				<path style="fill:#BA68C8;" d="M47.785,339.19L47.35,185.611l-6.917-3.949l0.434,153.285c0.004,1.267,0.448,2.16,1.161,2.596
					l-0.005,0.004l0.036,0.022c0.01,0.005,0.019,0.012,0.029,0.017l6.82,4.169C48.22,341.309,47.789,340.432,47.785,339.19z"/>
				<path style="opacity:0.2;fill:#FFFFFF;" d="M47.785,339.19L47.35,185.611l-6.917-3.949l0.434,153.285
					c0.004,1.267,0.448,2.16,1.161,2.596l-0.005,0.004l0.036,0.022c0.01,0.005,0.019,0.012,0.029,0.017l6.82,4.169
					C48.22,341.309,47.789,340.432,47.785,339.19z"/>
				<path style="fill:#455A64;" d="M51.894,341.532c-0.273,0.157-0.539,0.277-0.797,0.367
					C51.355,341.81,51.621,341.689,51.894,341.532z"/>
				<path style="fill:#455A64;" d="M50.536,342.03c-0.055,0.009-0.113,0.031-0.167,0.037
					C50.423,342.061,50.482,342.039,50.536,342.03z"/>
				<path style="fill:#455A64;" d="M49.118,341.883v-0.012l0,0c-0.017-0.008-0.036-0.011-0.052-0.019L49.118,341.883z"/>
				<path style="fill:#BA68C8;" d="M47.338,172.326l-0.022-7.639c-0.007-2.603,1.817-5.771,4.082-7.079L282.816,23.999
					c1.113-0.643,2.123-0.708,2.864-0.303l-6.828-4.193v0.008c-0.749-0.465-1.794-0.426-2.955,0.244L44.48,153.364
					c-2.265,1.308-4.089,4.476-4.082,7.079l0.022,7.64l0.011,0.004l-0.036,0.021l0.001,0.306l6.917,3.938L47.338,172.326z"/>
				<path style="opacity:0.3;fill:#FFFFFF;" d="M47.338,172.326l-0.022-7.639c-0.007-2.603,1.817-5.771,4.082-7.079L282.816,23.999
					c1.113-0.643,2.123-0.708,2.864-0.303l-6.828-4.193v0.008c-0.749-0.465-1.794-0.426-2.955,0.244L44.48,153.364
					c-2.265,1.308-4.089,4.476-4.082,7.079l0.022,7.64l0.011,0.004l-0.036,0.021l0.001,0.306l6.917,3.938L47.338,172.326z"/>
				<polygon style="opacity:0.2;" points="47.35,185.611 47.312,172.351 40.395,168.413 40.432,181.368 40.432,181.368 
					40.433,181.662 47.35,185.611 				"/>
				<polygon style="opacity:0.2;fill:#FFFFFF;" points="47.35,185.611 47.312,172.351 40.395,168.413 40.432,181.368 
					40.432,181.368 40.433,181.662 47.35,185.611 				"/>
			</g>
			<g>
				<path style="fill:#BA68C8;" d="M282.816,23.999c2.258-1.304,4.101-0.253,4.109,2.35l0.022,7.64L47.338,172.326l-0.022-7.639
					c-0.007-2.603,1.817-5.771,4.082-7.079L282.816,23.999z"/>
			</g>
			<g>
				<g>
					<path style="fill:#FFFFFF;" d="M267.303,36.636c1.21-0.699,2.195-0.138,2.199,1.253c0.004,1.391-0.974,3.085-2.184,3.783
						c-1.21,0.699-2.195,0.138-2.199-1.253C265.115,39.029,266.093,37.335,267.303,36.636z"/>
				</g>
				<g>
					<path style="fill:#FFFFFF;" d="M273.988,32.777c1.21-0.699,2.195-0.138,2.199,1.253c0.004,1.391-0.974,3.085-2.184,3.784
						c-1.21,0.699-2.195,0.138-2.199-1.253C271.8,35.17,272.778,33.475,273.988,32.777z"/>
				</g>
				<g>
					<path style="fill:#FFFFFF;" d="M280.666,28.921c1.21-0.699,2.195-0.138,2.199,1.253c0.004,1.391-0.974,3.085-2.184,3.783
						c-1.21,0.699-2.195,0.138-2.199-1.253C278.478,31.314,279.456,29.62,280.666,28.921z"/>
				</g>
			</g>
			<g>
				<path style="fill:#E0E0E0;" d="M95.527,136.931c0.9-0.52,1.736-0.433,2.166,0.236l2.175,3.347
					c0.43,0.669,1.259,0.768,2.166,0.244L286.92,34.014l0.038,13.278L47.35,185.629l-0.038-13.278l7.098-4.098
					c0.908-0.524,1.732-1.578,2.165-2.745l2.142-5.84c0.425-1.163,1.258-2.212,2.158-2.732L95.527,136.931z"/>
			</g>
			<g>
				<path style="fill:#BA68C8;" d="M286.958,47.274l0.435,153.579c0.007,2.594-1.824,5.767-4.082,7.07L51.894,341.532
					c-2.265,1.308-4.101,0.253-4.109-2.341L47.35,185.611L286.958,47.274z"/>
			</g>
			<g style="opacity:0.4;">
				<path style="fill:#FFFFFF;" d="M286.958,47.274l0.435,153.579c0.007,2.594-1.824,5.767-4.082,7.07L51.894,341.532
					c-2.265,1.308-4.101,0.253-4.109-2.341L47.35,185.611L286.958,47.274z"/>
			</g>
			<g>
				<g>
					<path style="fill:#FFFFFF;" d="M277.482,42.171c1.609-0.929,2.911-0.186,2.917,1.662c0.005,1.848-1.289,4.099-2.898,5.028
						L74.676,165.961c-1.609,0.929-2.919,0.182-2.924-1.666c-0.005-1.848,1.297-4.095,2.905-5.023L277.482,42.171z"/>
				</g>
				<g>
					<path style="fill:#E0E0E0;" d="M51.182,173.53c0.11-0.063,0.219-0.076,0.301-0.02c0.155,0.106,0.141,0.411-0.02,0.683
						l-1.28,2.089l3.357-1.938c0.229-0.132,0.414-0.027,0.415,0.228c0.001,0.263-0.183,0.581-0.412,0.714l-3.357,1.938l1.288,0.607
						c0.163,0.084,0.179,0.373,0.024,0.649c-0.081,0.149-0.191,0.263-0.302,0.327c-0.096,0.055-0.199,0.081-0.281,0.043
						l-2.057-0.986l-0.082-0.08l-0.015-0.025l-0.038-0.165l0.037-0.208l0.015-0.034l0.073-0.17l2.053-3.359
						C50.98,173.689,51.082,173.588,51.182,173.53z"/>
				</g>
				<g>
					<path style="fill:#E0E0E0;" d="M58.446,169.335c0.1-0.057,0.201-0.073,0.282-0.035l2.058,0.978l0.082,0.089l0.022,0.013
						l0.03,0.169l-0.029,0.204l-0.022,0.047l-0.073,0.161l-2.053,3.368c-0.081,0.132-0.177,0.221-0.28,0.281
						c-0.111,0.064-0.214,0.073-0.296,0.018c-0.155-0.097-0.149-0.398,0.02-0.674l1.273-2.085l-3.357,1.938
						c-0.222,0.128-0.407,0.022-0.407-0.24c-0.001-0.254,0.183-0.573,0.405-0.701l3.357-1.938l-1.28-0.611
						c-0.17-0.08-0.178-0.372-0.024-0.657C58.23,169.511,58.337,169.399,58.446,169.335z"/>
				</g>
				<g>
					<path style="fill:#E0E0E0;" d="M65.347,165.352c0.509-0.294,0.989-0.376,1.389-0.258l0.309-0.408
						c0.066-0.089,0.144-0.159,0.221-0.204c0.077-0.045,0.155-0.064,0.221-0.051c0.141,0.021,0.208,0.169,0.186,0.368l-0.174,1.264
						c-0.015,0.144-0.081,0.293-0.176,0.424c-0.066,0.081-0.147,0.161-0.221,0.204l-0.103,0.043l-0.997,0.278
						c-0.155,0.039-0.274-0.037-0.304-0.207c-0.03-0.17,0.043-0.39,0.183-0.573l0.096-0.132c-0.192,0.001-0.406,0.065-0.628,0.193
						c-0.812,0.469-1.474,1.615-1.471,2.548c0.003,0.941,0.669,1.312,1.481,0.844c0.539-0.311,1.032-0.927,1.296-1.623
						c0.07-0.197,0.21-0.367,0.355-0.451c0.067-0.039,0.135-0.059,0.198-0.055c0.2,0.012,0.274,0.258,0.164,0.551
						c-0.403,1.074-1.169,2.034-2.011,2.52c-1.262,0.729-2.298,0.146-2.302-1.312C63.056,167.864,64.085,166.08,65.347,165.352z"/>
				</g>
				<g style="opacity:0.3;">
					<path d="M51.182,173.53c0.11-0.063,0.219-0.076,0.301-0.02c0.155,0.106,0.141,0.411-0.02,0.683l-1.28,2.089l3.357-1.938
						c0.229-0.132,0.414-0.027,0.415,0.228c0.001,0.263-0.183,0.581-0.412,0.714l-3.357,1.938l1.288,0.607
						c0.163,0.084,0.179,0.373,0.024,0.649c-0.081,0.149-0.191,0.263-0.302,0.327c-0.096,0.055-0.199,0.081-0.281,0.043
						l-2.057-0.986l-0.082-0.08l-0.015-0.025l-0.038-0.165l0.037-0.208l0.015-0.034l0.073-0.17l2.053-3.359
						C50.98,173.689,51.082,173.588,51.182,173.53z"/>
				</g>
				<g style="opacity:0.3;">
					<path d="M58.446,169.335c0.1-0.057,0.201-0.073,0.282-0.035l2.058,0.978l0.082,0.089l0.022,0.013l0.03,0.169l-0.029,0.204
						l-0.022,0.047l-0.073,0.161l-2.053,3.368c-0.081,0.132-0.177,0.221-0.28,0.281c-0.111,0.064-0.214,0.073-0.296,0.018
						c-0.155-0.097-0.149-0.398,0.02-0.674l1.273-2.085l-3.357,1.938c-0.222,0.128-0.407,0.022-0.407-0.24
						c-0.001-0.254,0.183-0.573,0.405-0.701l3.357-1.938l-1.28-0.611c-0.17-0.08-0.178-0.372-0.024-0.657
						C58.23,169.511,58.337,169.399,58.446,169.335z"/>
				</g>
				<g style="opacity:0.3;">
					<path d="M65.347,165.352c0.509-0.294,0.989-0.376,1.389-0.258l0.309-0.408c0.066-0.089,0.144-0.159,0.221-0.204
						c0.077-0.045,0.155-0.064,0.221-0.051c0.141,0.021,0.208,0.169,0.186,0.368l-0.174,1.264c-0.015,0.144-0.081,0.293-0.176,0.424
						c-0.066,0.081-0.147,0.161-0.221,0.204l-0.103,0.043l-0.997,0.278c-0.155,0.039-0.274-0.037-0.304-0.207
						c-0.03-0.17,0.043-0.39,0.183-0.573l0.096-0.132c-0.192,0.001-0.406,0.065-0.628,0.193c-0.812,0.469-1.474,1.615-1.471,2.548
						c0.003,0.941,0.669,1.312,1.481,0.844c0.539-0.311,1.032-0.927,1.296-1.623c0.07-0.197,0.21-0.367,0.355-0.451
						c0.067-0.039,0.135-0.059,0.198-0.055c0.2,0.012,0.274,0.258,0.164,0.551c-0.403,1.074-1.169,2.034-2.011,2.52
						c-1.262,0.729-2.298,0.146-2.302-1.312C63.056,167.864,64.085,166.08,65.347,165.352z"/>
				</g>
			</g>
			<g>
				<g>
					<polygon style="fill:#BA68C8;" points="191.836,171.497 192.058,249.825 116.424,293.492 116.202,215.164 					"/>
				</g>
				<g>
					<polygon style="fill:#BA68C8;" points="277.328,64.973 277.454,109.105 175.197,168.143 175.072,124.011 					"/>
				</g>
				<g style="opacity:0.5;">
					<polygon style="fill:#FFFFFF;" points="191.836,171.497 192.058,249.825 116.424,293.492 116.202,215.164 					"/>
				</g>
				<g style="opacity:0.5;">
					<polygon style="fill:#FFFFFF;" points="277.328,64.973 277.454,109.105 175.197,168.143 175.072,124.011 					"/>
				</g>
				<g>
					<polygon style="fill:#BA68C8;" points="108.823,219.424 109.045,297.753 61.082,325.444 60.86,247.116 					"/>
				</g>
				<g>
					<polygon style="fill:#BA68C8;" points="276.693,122.504 276.915,200.833 199.437,245.565 199.215,167.237 					"/>
				</g>
				<g style="opacity:0.3;">
					<polygon style="fill:#FFFFFF;" points="108.823,219.424 109.045,297.753 61.082,325.444 60.86,247.116 					"/>
				</g>
				<g style="opacity:0.3;">
					<polygon style="fill:#FFFFFF;" points="276.693,122.504 276.915,200.833 199.437,245.565 199.215,167.237 					"/>
				</g>
			</g>
			<g>
				<g>
					<path style="fill:#BA68C8;" d="M83.873,175.84c12.756-7.364,23.127-1.454,23.169,13.197
						c0.041,14.651-10.263,32.498-23.019,39.863c-12.75,7.361-23.122,1.451-23.163-13.2
						C60.819,201.049,71.123,183.202,83.873,175.84z"/>
				</g>
				<path style="fill:#37474F;" d="M95.553,189.512c1.237-0.889,2.126-2.251,2.44-3.742c0.315-1.491,0.053-3.095-0.72-4.409
					c0.67-0.322,1.321-0.856,1.626-1.534c0.294-0.653,0.148-1.479-0.351-1.992c-0.5-0.513-1.321-0.68-1.982-0.403
					c0.412-1.013-0.063-2.392-1.006-2.945c-0.944-0.553-2.277-0.307-2.96,0.548c0.045-0.696-0.438-1.367-1.101-1.584
					c-0.663-0.218-1.392-0.098-2.052,0.129c-0.66,0.226-1.282,0.554-1.947,0.765c-1.123,0.356-2.322,0.363-3.497,0.446
					c-1.175,0.083-2.389,0.26-3.378,0.901c-0.989,0.64-1.862,2.137-1.329,3.426c-0.333-0.423-0.866-0.726-1.403-0.744
					c-0.537-0.018-1.079,0.212-1.439,0.611c0.736,0.456,1.447,0.946,2.183,1.402c-0.74-0.333-1.844,0.189-2.245,0.895
					c-0.401,0.706-0.42,1.559-0.396,2.371c0.091,3.082,0.653,6.148,1.626,9.074c0.503,1.513,1.682,3.415,3.115,4.113L95.553,189.512
					z"/>
				<path style="fill:#EBEBEB;" d="M93.152,201.091l3.493,2.986l1.845,10.591c1.503-2.266,2.853-4.653,4.008-7.106
					C100.899,203.517,99.627,201.091,93.152,201.091z"/>
				<g>
					<path style="fill:#BA68C8;" d="M84.023,228.9c5.991-3.459,11.44-9.23,15.532-15.896c-0.336-5.734-1.181-11.913-6.403-11.913
						l-15.506,0.108l-3.165,0.337l-1.495,30.513C76.269,232.209,80.03,231.206,84.023,228.9z"/>
				</g>
				<g style="opacity:0.4;">
					<path style="fill:#FFFFFF;" d="M84.023,228.9c5.991-3.459,11.44-9.23,15.532-15.896c-0.336-5.734-1.181-11.913-6.403-11.913
						l-15.506,0.108l-3.165,0.337l-1.495,30.513C76.269,232.209,80.03,231.206,84.023,228.9z"/>
				</g>
				<path style="fill:#EBEBEB;" d="M90.617,203.154c1.449,4.614,0.539,11.049,0,13.946c-3.672-5.053-7.108-10.119-8.186-12.1
					l5.121-2.487L90.617,203.154z"/>
				<g>
					<g>
						<path style="fill:#455A64;" d="M88.476,207.393l1.265-0.301c0,0,0.935,2.375,1.542,4.941
							c-0.156,2.043-0.442,3.863-0.666,5.067c-0.72-0.992-1.431-1.983-2.117-2.952C88.642,212.492,88.787,209.751,88.476,207.393z"
							/>
						<path style="opacity:0.2;" d="M88.505,207.66c-0.01-0.089-0.017-0.18-0.029-0.267l1.265-0.301c0,0,0.027,0.069,0.072,0.187
							c-0.206,0.181-0.449,0.32-0.718,0.378C88.901,207.699,88.701,207.691,88.505,207.66z"/>
					</g>
					<g>
						<path style="fill:#455A64;" d="M87.798,204.08l-0.996-0.64l-2.321,1.265c1.018,0.932,2.738,1.084,2.738,1.084L87.798,204.08z"
							/>
						<path style="fill:#455A64;" d="M89.333,203.834l0.304-0.68l1.17,0.732c-0.228,0.761-0.76,1.113-0.76,1.113L89.333,203.834z"/>
						<path style="opacity:0.2;" d="M87.798,204.08l-0.996-0.64l-2.321,1.265c1.018,0.932,2.738,1.084,2.738,1.084L87.798,204.08z"
							/>
						<path style="opacity:0.2;" d="M89.333,203.834l0.304-0.68l1.17,0.732c-0.228,0.761-0.76,1.113-0.76,1.113L89.333,203.834z"/>
						<path style="fill:#455A64;" d="M87.219,205.788c0.099-0.588,0.295-1.184,0.58-1.709c0.512-0.082,1.023-0.164,1.535-0.246
							c0.279,0.355,0.524,0.756,0.713,1.166c0.076,1.093-0.305,2.092-0.305,2.092c-0.571,0.323-1.265,0.301-1.265,0.301
							C87.563,206.825,87.219,205.788,87.219,205.788z"/>
					</g>
				</g>
				<path style="fill:#E0E0E0;" d="M88.337,203.54c-2.435-0.042-3.923,1.897-6.15,2.56l-4.541-4.902l1.76-2.617
					c0.351-0.522,0.808-0.965,1.341-1.299l0,0l0.02,0.948c0.012,0.563,0.316,1.079,0.802,1.363L88.337,203.54z"/>
				<path style="fill:#E0E0E0;" d="M88.337,203.54c1.354-0.421,3.376,1.272,3.376,1.272c-0.707-3.916-2.845-5.457-3.368-5.457
					L88.337,203.54z"/>
				<path style="fill:#EBEBEB;" d="M74.481,201.536l-2.104,0.336c-2.541,0.406-4.542,2.355-5.066,4.874
					c-1.943,9.331-1.37,17.849-1.37,17.849l9.601-4.422C76.553,212.67,78.523,206.471,74.481,201.536z"/>
				<g>
					<g>
						<path style="fill:#E0E0E0;" d="M75.441,223.509l0.039-0.834c0.007-0.153,0.076-0.297,0.191-0.398
							c0.122-0.108,0.191-0.263,0.191-0.425v-1.39c0-0.378-0.312-0.679-0.69-0.674c-4.347,0.057-8.568,2.124-9.72,4.556
							c-0.472,1.011,0,2.35,0,2.35c-0.754,0.984-0.39,1.491,0.003,2.193c0.392,0.378,0.809,0.719,1.244,1.032
							C69.511,225.389,75.441,223.509,75.441,223.509z"/>
					</g>
					<path style="opacity:0.2;" d="M70.945,222.536c-2.059,0.789-4.338,2.695-5.493,4.157c0,0-0.117-0.332-0.176-0.79
						C65.995,225,67.559,223.347,70.945,222.536z"/>
					<path style="opacity:0.2;" d="M75.834,222.019c-0.031,0.098-0.084,0.188-0.163,0.257c-0.115,0.102-0.183,0.245-0.191,0.398
						l-0.003,0.067c-3.013,0.455-5.872,1.898-8.019,4.063C69.465,223.892,73.877,222.402,75.834,222.019z"/>
				</g>
				<g>
					<path style="fill:#FFA8A7;" d="M84.023,228.9c3.539-2.043,6.888-4.895,9.881-8.26c-5.568,0.032-13.338,0.34-18.427,2.102
						l-0.036,0.767c0,0-5.93,1.881-8.742,6.409C70.945,232.974,77.135,232.877,84.023,228.9z"/>
					<path style="opacity:0.2;" d="M75.862,223.532l0.097-0.948c-0.162,0.052-0.325,0.103-0.482,0.157l-0.036,0.767
						c0,0-1.842,0.582-3.96,1.879c-0.344,0.452-0.686,1.038-0.909,1.77c1.161-1.643,2.432-2.3,4.908-2.936
						c2.253,0.346,6.174,2.007,10.164,3.67c0.382-0.251,0.761-0.511,1.138-0.78C81.989,225.443,77.11,223.617,75.862,223.532z"/>
				</g>
				<path style="fill:#FFA8A7;" d="M83.548,197.456l-0.071-0.037c-1.025-0.54-1.782-1.493-2.04-2.622
					c-0.128-0.558-0.239-1.12-0.328-1.685c-0.081-0.513-0.456-0.012-0.456-0.012s0.029,1.246,0.061,2.734
					c0.017,0.783,0.036,1.631,0.052,2.4c0.012,0.563,0.316,1.077,0.802,1.36l6.768,3.947v-3.388l0.007-1.423
					C86.668,198.606,84.951,198.196,83.548,197.456z"/>
				<polygon style="fill:#FFA8A7;" points="81.903,196.596 81.902,196.594 81.909,196.598 				"/>
				<path style="opacity:0.2;" d="M82.583,197.359c-0.397-0.509-0.686-1.108-0.835-1.735c0.373,0.758,0.969,1.393,1.73,1.794
					c0.024,0.013,0.048,0.025,0.071,0.037c1.403,0.741,3.12,1.15,4.796,1.274l-0.007,1.227c-0.964-0.102-1.923-0.269-2.834-0.595
					C84.377,198.959,83.318,198.303,82.583,197.359z"/>
				<g>
					<path style="fill:#FFA8A7;" d="M95.97,182.058c0.553,4.181,0.276,8.47-0.812,12.545c-0.238,0.893-0.519,1.785-0.996,2.576
						c-0.476,0.792-1.168,1.482-2.033,1.806c-1.064,0.398-2.247,0.206-3.366,0.009c-2.047-0.361-4.146-0.741-5.924-1.817
						c-1.778-1.076-3.188-3.02-3.016-5.091c-1.036,0.594-2.345,0.751-3.399,0.188c-1.053-0.563-1.782-1.69-1.864-2.881
						c-0.079-1.16,0.591-2.452,1.73-2.682c0.696-0.14,1.424,0.138,1.981,0.579c0.557,0.441,0.973,1.031,1.381,1.612
						c0.194,0.277,0.398,0.562,0.688,0.736c0.29,0.174,0.693,0.209,0.95-0.011c0.281-0.24,0.287-0.665,0.27-1.035l-0.12-2.626
						c-0.019-0.413,0.214-0.789,0.582-0.977c0.535-0.272,0.943-0.773,1.176-1.353c0.202-0.503,0.289-1.038,0.332-1.58
						c0.035-0.436,0.479-0.714,0.885-0.551C87.943,182.929,92.336,182.992,95.97,182.058z"/>
					<g>
						<polygon style="fill:#F28F8F;" points="90.195,188.426 92.556,192.4 89.741,192.929 						"/>
						<path style="fill:#F28F8F;" d="M87.028,194.298c0.713,0.347,1.426,0.693,2.139,1.04c-0.311,0.486-1.095,0.698-1.622,0.461
							C87.019,195.563,86.872,194.854,87.028,194.298z"/>
						<path style="opacity:0.3;" d="M87.028,194.298c0.713,0.347,1.426,0.693,2.139,1.04c-0.311,0.486-1.095,0.698-1.622,0.461
							C87.019,195.563,86.872,194.854,87.028,194.298z"/>
						<path style="fill:#F28F8F;" d="M88.288,195.87c-0.257,0.045-0.522,0.029-0.743-0.07c-0.413-0.186-0.59-0.662-0.572-1.127
							c0.304,0.001,0.608,0.1,0.843,0.293C88.087,195.187,88.253,195.522,88.288,195.87z"/>
						<path style="fill:#263238;" d="M86.119,188.584c-0.045,0.444,0.279,0.841,0.723,0.886c0.444,0.045,0.841-0.279,0.886-0.723
							c0.045-0.444-0.279-0.841-0.723-0.885C86.56,187.816,86.163,188.14,86.119,188.584z"/>
						<path style="fill:#263238;" d="M92.899,189.004c-0.045,0.444,0.279,0.841,0.723,0.885c0.444,0.045,0.841-0.279,0.885-0.723
							c0.045-0.444-0.279-0.841-0.723-0.886C93.34,188.236,92.943,188.56,92.899,189.004z"/>
						<path style="fill:#263238;" d="M94.004,185.881c0.553,0.471,1.106,0.942,1.659,1.413c0.219-0.405,0.105-0.971-0.221-1.297
							C95.116,185.671,94.41,185.663,94.004,185.881z"/>
						<path style="fill:#263238;" d="M87.125,185.09c-0.636,0.351-1.272,0.702-1.908,1.053c-0.134-0.441,0.092-0.973,0.476-1.227
							C86.077,184.662,86.772,184.795,87.125,185.09z"/>
					</g>
				</g>
			</g>
			<g style="opacity:0.5;">
				<g>
					<polygon style="fill:#FFFFFF;" points="144.104,169.789 144.11,172.028 115.913,188.229 115.907,185.991 					"/>
				</g>
				<g>
					<polygon style="fill:#FFFFFF;" points="149.38,180.502 149.386,182.741 115.952,201.966 115.946,199.727 					"/>
				</g>
				<g>
					<polygon style="fill:#FFFFFF;" points="154.373,173.046 154.38,175.285 115.939,197.4 115.933,195.162 					"/>
				</g>
				<g>
					<polygon style="fill:#FFFFFF;" points="162.274,154.726 162.28,156.964 115.9,183.664 115.894,181.425 					"/>
				</g>
				<g>
					<polygon style="fill:#FFFFFF;" points="167.854,146.891 167.86,149.129 115.887,179.058 115.881,176.82 					"/>
				</g>
				<g>
					<polygon style="fill:#FFFFFF;" points="142.643,152.865 142.655,157.351 115.869,172.816 115.857,168.33 					"/>
				</g>
			</g>
		</g>
		<g>
			<g>
				<g>
					<polygon style="fill:#BA68C8;" points="211.822,110.511 211.837,115.741 182.868,132.512 182.853,127.282 					"/>
				</g>
				<g style="enable-background:new    ;">
					<g>
						<polygon style="fill:#BA68C8;" points="261.404,109.485 261.413,112.684 182.941,158.065 182.932,154.866 						"/>
					</g>
					<g>
						<polygon style="fill:#BA68C8;" points="267.661,99.735 267.67,102.926 182.923,151.675 182.913,148.484 						"/>
					</g>
					<g>
						<polygon style="fill:#BA68C8;" points="248.408,104.382 248.416,107.573 182.904,145.285 182.895,142.093 						"/>
					</g>
				</g>
				<g>
					<polygon style="fill:#BA68C8;" points="267.624,86.954 267.634,90.145 182.886,138.894 182.877,135.703 					"/>
				</g>
			</g>
			<g style="opacity:0.3;">
				<g>
					<polygon style="fill:#FFFFFF;" points="211.822,110.511 211.837,115.741 182.868,132.512 182.853,127.282 					"/>
				</g>
				<g style="enable-background:new    ;">
					<g>
						<polygon style="fill:#FFFFFF;" points="261.404,109.485 261.413,112.684 182.941,158.065 182.932,154.866 						"/>
					</g>
					<g>
						<polygon style="fill:#FFFFFF;" points="267.661,99.735 267.67,102.926 182.923,151.675 182.913,148.484 						"/>
					</g>
					<g>
						<polygon style="fill:#FFFFFF;" points="248.408,104.382 248.416,107.573 182.904,145.285 182.895,142.093 						"/>
					</g>
				</g>
				<g>
					<polygon style="fill:#FFFFFF;" points="267.624,86.954 267.634,90.145 182.886,138.894 182.877,135.703 					"/>
				</g>
			</g>
		</g>
		<g style="opacity:0.5;">
			<g>
				<g>
					<polygon style="fill:#FFFFFF;" points="84.926,240.794 84.939,245.57 66.461,256.238 66.447,251.463 					"/>
				</g>
				<g>
					<polygon style="fill:#FFFFFF;" points="103.33,237.826 103.337,240.076 66.475,261.358 66.469,259.108 					"/>
				</g>
				<g>
					<polygon style="fill:#FFFFFF;" points="103.343,242.327 103.349,244.577 66.488,265.859 66.482,263.609 					"/>
				</g>
				<g style="enable-background:new    ;">
					<g>
						<polygon style="fill:#FFFFFF;" points="103.473,288.157 103.479,290.407 66.618,311.689 66.612,309.439 						"/>
					</g>
					<g>
						<polygon style="fill:#FFFFFF;" points="103.46,283.656 103.466,285.906 66.605,307.188 66.599,304.938 						"/>
					</g>
					<g>
						<polygon style="fill:#FFFFFF;" points="82.592,288.047 82.606,292.822 66.591,302.068 66.577,297.293 						"/>
					</g>
					<g>
						<polygon style="fill:#FFFFFF;" points="96.863,273.525 96.87,275.775 66.566,293.271 66.559,291.021 						"/>
					</g>
					<g>
						<polygon style="fill:#FFFFFF;" points="103.408,265.238 103.414,267.488 66.553,288.77 66.547,286.52 						"/>
					</g>
					<g>
						<polygon style="fill:#FFFFFF;" points="103.395,260.745 103.402,262.995 66.54,284.277 66.534,282.027 						"/>
					</g>
				</g>
				<g>
					<polygon style="fill:#FFFFFF;" points="92.66,259.277 92.674,264.06 66.526,279.157 66.512,274.374 					"/>
				</g>
				<g>
					<polygon style="fill:#FFFFFF;" points="84.925,257.468 84.931,259.719 66.501,270.359 66.494,268.109 					"/>
				</g>
				<g>
					<polygon style="fill:#FFFFFF;" points="76.573,308.195 76.579,310.438 66.631,316.182 66.624,313.939 					"/>
				</g>
			</g>
		</g>
		<g>
			<g>
				<polygon style="fill:#BA68C8;" points="164.657,211.022 149.635,239.557 145.385,247.637 148.313,238.537 140.03,232.106 
					130.804,250.429 130.836,261.624 179.243,233.676 179.211,222.481 				"/>
				<path style="fill:#BA68C8;" d="M148.784,226.146c2.278-1.315,4.12-4.505,4.112-7.123c-0.007-2.618-1.861-3.674-4.139-2.359
					c-2.278,1.315-4.12,4.505-4.112,7.123C144.652,226.405,146.506,227.461,148.784,226.146z"/>
			</g>
			<g style="opacity:0.3;">
				<polygon style="fill:#FFFFFF;" points="164.657,211.022 149.635,239.557 145.385,247.637 148.313,238.537 140.03,232.106 
					130.804,250.429 130.836,261.624 179.243,233.676 179.211,222.481 				"/>
				<path style="fill:#FFFFFF;" d="M148.784,226.146c2.278-1.315,4.12-4.505,4.112-7.123c-0.007-2.618-1.861-3.674-4.139-2.359
					c-2.278,1.315-4.12,4.505-4.112,7.123C144.652,226.405,146.506,227.461,148.784,226.146z"/>
			</g>
		</g>
		<g>
			<g>
				<polygon style="fill:#BA68C8;" points="250.32,162.497 235.298,191.031 231.047,199.111 233.975,190.012 225.692,183.581 
					216.467,201.904 216.499,213.099 264.906,185.151 264.874,173.956 				"/>
				<path style="fill:#BA68C8;" d="M234.447,177.621c2.278-1.315,4.12-4.505,4.112-7.123c-0.007-2.618-1.861-3.674-4.139-2.359
					c-2.278,1.316-4.12,4.505-4.112,7.123C230.315,177.88,232.168,178.936,234.447,177.621z"/>
			</g>
		</g>
		<g style="opacity:0.5;">
			<g>
				<polygon style="fill:#FFFFFF;" points="250.32,162.497 235.298,191.031 231.047,199.111 233.975,190.012 225.692,183.581 
					216.467,201.904 216.499,213.099 264.906,185.151 264.874,173.956 				"/>
				<path style="fill:#FFFFFF;" d="M234.447,177.621c2.278-1.315,4.12-4.505,4.112-7.123c-0.007-2.618-1.861-3.674-4.139-2.359
					c-2.278,1.316-4.12,4.505-4.112,7.123C230.315,177.88,232.168,178.936,234.447,177.621z"/>
			</g>
		</g>
	</g>
</g>
<g id="Character">
	<g>
		<g>
			<path style="fill:#E0E0E0;" d="M329.056,373.965l-0.003,0.006l2.621,1.671c0.017,0.01,0.034,0.023,0.051,0.033l0.006,0.004
				l0-0.001c0.76,0.423,1.802,0.354,2.95-0.309c2.313-1.335,4.185-4.574,4.178-7.236c-0.004-1.291-0.453-2.203-1.176-2.651
				l0.001-0.001l-0.038-0.024c-0.011-0.007-0.021-0.014-0.033-0.021l-0.772-0.49l25.092-10.198c-0.003,0.523,0.322,1.04,0.945,1.461
				l-2.261,19.734v2.676c-1.967,1.531-3.463,4.358-3.456,6.731c0.004,1.368,0.508,2.305,1.306,2.722l-0.003,0.006l2.62,1.67
				c0.018,0.011,0.035,0.023,0.053,0.034l0.005,0.003l0-0.001c0.76,0.423,1.802,0.354,2.95-0.309
				c2.313-1.335,4.185-4.574,4.178-7.236c-0.004-1.291-0.452-2.203-1.176-2.651l0.001-0.001l-0.036-0.023
				c-0.012-0.007-0.023-0.015-0.035-0.022l-2.655-1.685l-0.004,0.008c-0.392-0.243-0.864-0.349-1.391-0.304l2.89-20.565v-0.001
				c0.634-0.006,1.261-0.107,1.832-0.292v0.003l23.767,12.84l-1.368,0.868c-0.013,0.007-0.024,0.016-0.036,0.023l-0.035,0.022
				l0.001,0.001c-0.723,0.448-1.172,1.36-1.176,2.651c-0.008,2.662,1.865,5.901,4.178,7.236c1.148,0.663,2.19,0.732,2.95,0.309
				l0,0.001l0.005-0.003c0.018-0.01,0.035-0.023,0.052-0.033l2.621-1.67l-0.003-0.006c0.798-0.417,1.302-1.355,1.306-2.722
				c0.007-2.353-1.462-5.154-3.403-6.694v-4.143l-22.126-13.142l11.666-2.941c-0.769,1.318-1.245,2.805-1.242,4.146
				c0.004,1.368,0.508,2.305,1.306,2.722l-0.003,0.006l2.623,1.672c0.016,0.01,0.032,0.022,0.049,0.031l0.006,0.004l0.001-0.001
				c0.76,0.423,1.802,0.354,2.95-0.309c2.313-1.335,4.185-4.574,4.178-7.236c-0.004-1.291-0.453-2.203-1.176-2.651l0.001-0.001
				l-0.034-0.022c-0.012-0.007-0.024-0.016-0.036-0.023l-2.654-1.685l-0.004,0.008c-0.532-0.33-1.213-0.404-1.977-0.192v-0.669
				l-1.423-0.48l-18.954,0.998v-3.348c0.201-0.091,0.409-0.174,0.594-0.281c1.245-0.719,1.872-1.661,1.878-2.604v-21.921h-12.719
				v21.921c-0.006,0.943,0.61,1.886,1.848,2.606c0.194,0.113,0.413,0.201,0.624,0.296v2.813l-13.702-2.96l-0.656,0.263v2.52
				c-0.008,0.005-0.017,0.008-0.026,0.013l-0.004-0.008l-2.655,1.685c-0.012,0.007-0.024,0.016-0.036,0.023l-0.035,0.022
				l0.001,0.001c-0.723,0.448-1.172,1.36-1.176,2.651c-0.005,1.77,0.83,3.784,2.065,5.335l-13.236,5.964v3.13
				c-0.18,0.076-0.361,0.163-0.547,0.27c-2.313,1.335-4.185,4.574-4.178,7.231C327.754,372.61,328.258,373.548,329.056,373.965z
				 M336.948,359.819l9.588-4.272c0,0,0,0,0,0l-12.961,5.775L336.948,359.819z M353.906,349.04l1.941,1.041l-1.34,0.604
				C354.363,350.13,354.162,349.579,353.906,349.04z M361.935,348.686l-7.221,3.217v0L361.935,348.686z"/>
			<g>
				<g>
					<path style="fill:#37474F;" d="M392.69,351.284l2.1-3.598l-2.725-1.73l-0.005,0.008c-0.766-0.475-1.837-0.434-3.027,0.253
						c-2.313,1.336-4.185,4.574-4.178,7.232c0.004,1.368,0.508,2.305,1.306,2.722l-0.003,0.006l2.678,1.707l2.212-3.789
						C391.739,353.263,392.305,352.294,392.69,351.284z"/>
					<path style="fill:#455A64;" d="M391.761,347.946c2.313-1.335,4.197-0.266,4.205,2.392c0.007,2.662-1.865,5.901-4.178,7.236
						c-2.313,1.335-4.197,0.266-4.205-2.396C387.575,352.52,389.448,349.281,391.761,347.946z"/>
				</g>
				<g>
					<path style="fill:#37474F;" d="M346.922,350.259l-2.101-3.598l2.725-1.73l0.004,0.008c0.766-0.475,1.837-0.434,3.027,0.253
						c2.313,1.336,4.185,4.574,4.178,7.232c-0.004,1.368-0.508,2.306-1.306,2.723l0.003,0.006l-2.678,1.706l-2.212-3.789
						C347.873,352.238,347.307,351.269,346.922,350.259z"/>
					<path style="fill:#455A64;" d="M347.852,346.921c-2.313-1.335-4.198-0.266-4.205,2.392c-0.008,2.662,1.865,5.901,4.178,7.236
						c2.313,1.335,4.198,0.266,4.205-2.396C352.037,351.495,350.164,348.256,347.852,346.921z"/>
				</g>
				<path style="fill:#EBEBEB;" d="M361.935,341.35h7.773v13.397l0,0c-0.004,0.576-0.387,1.152-1.148,1.592
					c-1.522,0.879-3.983,0.88-5.496,0.001c-0.757-0.44-1.133-1.017-1.13-1.593l0,0V341.35z"/>
				<g>
					<polygon style="fill:#E0E0E0;" points="390.084,345.103 390.084,348.297 369.708,353.434 369.708,346.673 					"/>
					<polygon style="fill:#F5F5F5;" points="390.084,345.103 388.662,344.622 369.708,345.62 369.708,346.673 					"/>
				</g>
				<g>
					<path style="fill:#37474F;" d="M392.126,374.057l-2.101-3.598l2.725-1.729l0.004,0.007c0.766-0.475,1.837-0.434,3.027,0.253
						c2.313,1.335,4.185,4.574,4.178,7.232c-0.004,1.368-0.508,2.306-1.306,2.722l0.003,0.006l-2.678,1.707l-2.212-3.789
						C393.077,376.037,392.511,375.068,392.126,374.057z"/>
					<path style="fill:#455A64;" d="M393.056,370.72c-2.313-1.335-4.198-0.266-4.205,2.392c-0.008,2.662,1.865,5.901,4.178,7.236
						c2.313,1.335,4.198,0.266,4.205-2.396C397.241,375.293,395.369,372.055,393.056,370.72z"/>
				</g>
				<g>
					<path style="fill:#37474F;" d="M364.996,383.185l2.101-3.598l-2.726-1.73l-0.004,0.008c-0.766-0.475-1.837-0.434-3.027,0.253
						c-2.313,1.335-4.185,4.574-4.178,7.232c0.004,1.368,0.508,2.305,1.306,2.722l-0.003,0.006l2.678,1.707l2.212-3.789
						C364.045,385.165,364.611,384.196,364.996,383.185z"/>
					<path style="fill:#455A64;" d="M364.066,379.848c2.313-1.335,4.198-0.266,4.205,2.392c0.008,2.662-1.865,5.901-4.178,7.236
						c-2.313,1.336-4.198,0.266-4.205-2.396C359.881,384.422,361.753,381.183,364.066,379.848z"/>
				</g>
				<g>
					<path style="fill:#37474F;" d="M335.584,369.077l2.101-3.598l-2.726-1.73l-0.004,0.008c-0.766-0.475-1.837-0.434-3.027,0.253
						c-2.313,1.335-4.185,4.574-4.178,7.231c0.004,1.368,0.508,2.306,1.306,2.723l-0.003,0.006l2.678,1.707l2.212-3.789
						C334.633,371.057,335.199,370.087,335.584,369.077z"/>
					<path style="fill:#455A64;" d="M334.654,365.74c2.313-1.335,4.198-0.266,4.205,2.392c0.008,2.662-1.865,5.901-4.178,7.236
						c-2.313,1.335-4.198,0.266-4.205-2.396C330.469,370.313,332.342,367.075,334.654,365.74z"/>
				</g>
				<g>
					<polygon style="fill:#E0E0E0;" points="394.98,366.273 394.98,371.446 367.697,356.706 367.697,349.573 					"/>
					<polygon style="fill:#F5F5F5;" points="396.557,365.386 369.265,349.174 367.697,349.573 394.98,366.273 					"/>
					<polygon style="fill:#F0F0F0;" points="396.557,370.558 394.98,371.446 394.98,366.273 396.557,365.386 					"/>
				</g>
				<polygon style="fill:#E0E0E0;" points="365.866,349.573 362.541,375.942 362.541,380.657 365.866,356.996 				"/>
				<rect x="360.618" y="375.942" style="fill:#F0F0F0;" width="1.922" height="4.715"/>
				<polygon style="fill:#F5F5F5;" points="360.618,375.942 363.64,349.573 365.866,349.573 362.541,375.942 				"/>
				<polygon style="fill:#E0E0E0;" points="333.574,361.322 333.574,366.273 361.935,354.747 361.935,348.686 				"/>
				<polygon style="fill:#F0F0F0;" points="332.475,365.543 333.574,366.273 333.574,361.322 332.475,360.611 				"/>
				<polygon style="fill:#F5F5F5;" points="336.948,359.819 333.574,361.322 332.475,360.611 361.935,347.338 361.935,348.686 				
					"/>
				<polygon style="fill:#E0E0E0;" points="347.577,342.405 347.577,345.647 355.847,350.081 361.935,347.338 361.935,346.008 				
					"/>
				<polygon style="fill:#F5F5F5;" points="347.577,342.405 348.233,342.142 361.935,345.103 361.935,346.008 				"/>
				<path style="fill:#E0E0E0;" d="M359.462,317.466h12.719v21.921l0,0c-0.006,0.943-0.633,1.885-1.878,2.604
					c-2.49,1.438-6.518,1.44-8.992,0.002c-1.239-0.72-1.854-1.663-1.848-2.606l0,0V317.466z"/>
			</g>
			<g>
				<path style="fill:#BA68C8;" d="M309.358,282.228c0.7,1.046,1.607,1.947,2.75,2.599l51.836,27.534
					c3.483,1.85,7.649,1.891,11.168,0.109l36.313-18.392c4.648-2.354,8.079-6.57,9.44-11.599l17.52-64.727
					c0.293,0.092,0.584,0.187,0.88,0.271c0.746,0.211,1.515,0.388,2.289,0.348c0.034-0.002,0.067-0.01,0.101-0.013l-20.791,76.81
					c-1.361,5.029-4.792,9.245-9.44,11.599l-36.313,18.392c-3.519,1.782-7.684,1.741-11.168-0.109l-51.836-27.534
					C306.937,294.566,306.449,286.648,309.358,282.228z"/>
				<path style="opacity:0.3;" d="M309.358,282.228c0.7,1.046,1.607,1.947,2.75,2.599l51.836,27.534
					c3.483,1.85,7.649,1.891,11.168,0.109l36.313-18.392c4.648-2.354,8.079-6.57,9.44-11.599l17.52-64.727
					c0.293,0.092,0.584,0.187,0.88,0.271c0.746,0.211,1.515,0.388,2.289,0.348c0.034-0.002,0.067-0.01,0.101-0.013l-20.791,76.81
					c-1.361,5.029-4.792,9.245-9.44,11.599l-36.313,18.392c-3.519,1.782-7.684,1.741-11.168-0.109l-51.836-27.534
					C306.937,294.566,306.449,286.648,309.358,282.228z"/>
				<path style="fill:#BA68C8;" d="M311.776,279.891l37.56-19.269l49.463,25.446c-1.612,0.391-3.245,0.714-4.865,1.04
					c-4.253,0.854-8.59,1.796-12.284,4.069c-3.694,2.274-6.682,6.163-6.708,10.5l1.323,10.207l0,0l-1.153,0.584
					c-3.519,1.782-7.684,1.742-11.168-0.109l-51.836-27.534c-1.143-0.652-2.05-1.552-2.75-2.599
					C310.003,281.248,310.81,280.435,311.776,279.891z"/>
				<path style="opacity:0.2;" d="M311.776,279.891l37.56-19.269l49.463,25.446c-1.612,0.391-3.245,0.714-4.865,1.04
					c-4.253,0.854-8.59,1.796-12.284,4.069c-3.694,2.274-6.682,6.163-6.708,10.5l1.323,10.207l0,0l-1.153,0.584
					c-3.519,1.782-7.684,1.742-11.168-0.109l-51.836-27.534c-1.143-0.652-2.05-1.552-2.75-2.599
					C310.003,281.248,310.81,280.435,311.776,279.891z"/>
				<path style="fill:#BA68C8;" d="M317.244,247.674c0,0,30.149,8.867,38.129,1.035c9.92-9.736,5.764-34.286,4.581-43.893
					c-1.182-9.606,0-16.257,2.66-19.065c2.66-2.808,6.503-6.946,18.988-1.773c-12.633,6.503-14.259,37.407-10.269,49.813
					c-9.902,10.189-9.223,25.979-9.414,33.306c0,0-25.759,6.292-39.208,13.682L317.244,247.674z"/>
				<path style="opacity:0.1;fill:#FFFFFF;" d="M317.244,247.674c0,0,30.149,8.867,38.129,1.035
					c9.92-9.736,5.764-34.286,4.581-43.893c-1.182-9.606,0-16.257,2.66-19.065c2.66-2.808,6.503-6.946,18.988-1.773
					c-12.633,6.503-14.259,37.407-10.269,49.813c-9.902,10.189-9.223,25.979-9.414,33.306c0,0-25.759,6.292-39.208,13.682
					L317.244,247.674z"/>
				<path style="fill:#BA68C8;" d="M322.712,280.778l-6.175-3.329c0.005-16.955-2.503-15.292-7.179-21.942
					c-4.676-6.651,2.492-10.789,7.886-7.833C322.638,250.63,324.811,259.524,322.712,280.778z"/>
				<path style="opacity:0.2;fill:#FFFFFF;" d="M322.712,280.778l-6.175-3.329c0.005-16.955-2.503-15.292-7.179-21.942
					c-4.676-6.651,2.492-10.789,7.886-7.833C322.638,250.63,324.811,259.524,322.712,280.778z"/>
				<path style="fill:#BA68C8;" d="M381.603,183.977c0,0,33.772,14.631,50.213,22.759l-1.197,5.998l-53.865-24.459
					C378.148,186.414,379.754,184.929,381.603,183.977z"/>
				<path style="opacity:0.1;fill:#FFFFFF;" d="M381.603,183.977c0,0,33.772,14.631,50.213,22.759l-1.197,5.998l-53.865-24.459
					C378.148,186.414,379.754,184.929,381.603,183.977z"/>
				<path style="fill:#BA68C8;" d="M371.334,233.79c-3.406-10.591-2.714-34.652,5.421-45.514l53.865,24.459l-12.311,61.705
					l-19.509,11.628l-36.879-18.972C362.111,259.77,361.432,243.979,371.334,233.79z"/>
				<path style="opacity:0.1;" d="M371.334,233.79c-3.406-10.591-2.714-34.652,5.421-45.514l53.865,24.459l-12.311,61.705
					l-19.509,11.628l-36.879-18.972C362.111,259.77,361.432,243.979,371.334,233.79z"/>
				<g>
					<g>
						<path style="fill:#BA68C8;" d="M404.671,246.163c-0.913-0.527-1.658-0.105-1.66,0.944c-0.003,1.051,0.736,2.33,1.65,2.857
							c0.913,0.527,1.657,0.105,1.66-0.946C406.323,247.969,405.584,246.69,404.671,246.163z"/>
					</g>
					<g>
						<path style="fill:#BA68C8;" d="M396.335,241.264c-0.913-0.527-1.657-0.105-1.66,0.944c-0.003,1.051,0.736,2.33,1.649,2.857
							c0.913,0.527,1.658,0.105,1.66-0.946C397.988,243.071,397.248,241.792,396.335,241.264z"/>
					</g>
					<g>
						<path style="fill:#BA68C8;" d="M387.999,236.366c-0.913-0.527-1.657-0.105-1.66,0.944c-0.003,1.051,0.736,2.33,1.65,2.857
							c0.913,0.527,1.657,0.105,1.66-0.946C389.652,238.172,388.913,236.893,387.999,236.366z"/>
					</g>
					<g>
						<path style="fill:#BA68C8;" d="M379.664,231.468c-0.913-0.527-1.658-0.105-1.661,0.944c-0.003,1.051,0.736,2.33,1.65,2.857
							c0.913,0.527,1.657,0.105,1.66-0.946C381.317,233.274,380.577,231.995,379.664,231.468z"/>
					</g>
				</g>
				<g style="opacity:0.2;">
					<g>
						<path style="fill:#FFFFFF;" d="M404.671,246.163c-0.913-0.527-1.658-0.105-1.66,0.944c-0.003,1.051,0.736,2.33,1.65,2.857
							c0.913,0.527,1.657,0.105,1.66-0.946C406.323,247.969,405.584,246.69,404.671,246.163z"/>
					</g>
					<g>
						<path style="fill:#FFFFFF;" d="M396.335,241.264c-0.913-0.527-1.657-0.105-1.66,0.944c-0.003,1.051,0.736,2.33,1.649,2.857
							c0.913,0.527,1.658,0.105,1.66-0.946C397.988,243.071,397.248,241.792,396.335,241.264z"/>
					</g>
					<g>
						<path style="fill:#FFFFFF;" d="M387.999,236.366c-0.913-0.527-1.657-0.105-1.66,0.944c-0.003,1.051,0.736,2.33,1.65,2.857
							c0.913,0.527,1.657,0.105,1.66-0.946C389.652,238.172,388.913,236.893,387.999,236.366z"/>
					</g>
					<g>
						<path style="fill:#FFFFFF;" d="M379.664,231.468c-0.913-0.527-1.658-0.105-1.661,0.944c-0.003,1.051,0.736,2.33,1.65,2.857
							c0.913,0.527,1.657,0.105,1.66-0.946C381.317,233.274,380.577,231.995,379.664,231.468z"/>
					</g>
				</g>
				<g>
					<path style="fill:#BA68C8;" d="M381.649,291.177c3.694-2.273,8.032-3.215,12.284-4.069c1.62-0.326,3.253-0.649,4.865-1.04
						c2.618-0.634,5.178-1.447,7.528-2.745c5.959-3.291,9.957-9.442,11.875-15.973c1.918-6.531,1.961-13.462,1.555-20.257
						c-0.406-6.795-1.246-13.581-1.04-20.384c0.12-3.957,0.721-8.194,3.398-11.111c2.757-3.003,7.219-3.938,11.258-3.393
						c1.334,0.18,2.632,0.507,3.909,0.918l1.789,2.091l-0.686,2.536l-17.52,64.727c-1.221,4.511-4.115,8.355-8.051,10.8
						c-0.452,0.281-0.91,0.556-1.389,0.799l-35.16,17.808l-1.323-10.207C374.968,297.34,377.955,293.451,381.649,291.177z"/>
					<path style="opacity:0.3;" d="M381.649,291.177c3.694-2.273,8.032-3.215,12.284-4.069c1.62-0.326,3.253-0.649,4.865-1.04
						c2.618-0.634,5.178-1.447,7.528-2.745c5.959-3.291,9.957-9.442,11.875-15.973c1.918-6.531,1.961-13.462,1.555-20.257
						c-0.406-6.795-1.246-13.581-1.04-20.384c0.12-3.957,0.721-8.194,3.398-11.111c2.757-3.003,7.219-3.938,11.258-3.393
						c1.334,0.18,2.632,0.507,3.909,0.918l1.789,2.091l-0.686,2.536l-17.52,64.727c-1.221,4.511-4.115,8.355-8.051,10.8
						c-0.452,0.281-0.91,0.556-1.389,0.799l-35.16,17.808l-1.323-10.207C374.968,297.34,377.955,293.451,381.649,291.177z"/>
					<g>
						<path style="fill:#BA68C8;" d="M381.603,284.222c12.86-3.665,25.496-4.143,30.151-13.381
							c4.655-9.238,4.988-21.984,2.66-44.152c-0.302-3.303-0.198-6.137,0.205-8.58c1.369-8.294,6.362-11.84,12.099-11.926
							c5.645-0.084,11.226,1.964,15.385,5.782c0.78,0.716,1.526,1.517,1.906,2.505c0.38,0.988,0.325,2.204-0.376,2.997
							c-0.491,0.556-1.235,0.831-1.976,0.89c-0.034,0.003-0.067,0.012-0.101,0.013c-0.775,0.04-1.543-0.137-2.289-0.348
							c-0.296-0.083-0.587-0.179-0.88-0.271c-1.573-0.496-3.119-1.085-4.721-1.477c-1.9-0.466-3.938-0.634-5.788,0.002
							c-1.85,0.636-3.145,2.279-3.718,4.15c-5.422,17.712,1.45,36.743-4.646,51.374c-4.988,13.301-22.23,18.821-34.392,22.767v0
							c1.175-0.552,2.286-1.171,3.036-2.21c1.301-1.805,0.994-4.493-0.475-6.163C386.212,284.524,383.797,283.855,381.603,284.222z"
							/>
						<path style="opacity:0.1;fill:#FFFFFF;" d="M381.603,284.222c12.86-3.665,25.496-4.143,30.151-13.381
							c4.655-9.238,4.988-21.984,2.66-44.152c-0.302-3.303-0.198-6.137,0.205-8.58c1.369-8.294,6.362-11.84,12.099-11.926
							c5.645-0.084,11.226,1.964,15.385,5.782c0.78,0.716,1.526,1.517,1.906,2.505c0.38,0.988,0.325,2.204-0.376,2.997
							c-0.491,0.556-1.235,0.831-1.976,0.89c-0.034,0.003-0.067,0.012-0.101,0.013c-0.775,0.04-1.543-0.137-2.289-0.348
							c-0.296-0.083-0.587-0.179-0.88-0.271c-1.573-0.496-3.119-1.085-4.721-1.477c-1.9-0.466-3.938-0.634-5.788,0.002
							c-1.85,0.636-3.145,2.279-3.718,4.15c-5.422,17.712,1.45,36.743-4.646,51.374c-4.988,13.301-22.23,18.821-34.392,22.767v0
							c1.175-0.552,2.286-1.171,3.036-2.21c1.301-1.805,0.994-4.493-0.475-6.163C386.212,284.524,383.797,283.855,381.603,284.222z"
							/>
					</g>
					<g>
						<path style="fill:#BA68C8;" d="M372.681,293.323c0.806-2.074,1.821-4.096,3.292-5.766c1.471-1.669,3.436-2.97,5.631-3.336
							c2.194-0.366,4.609,0.302,6.079,1.973c1.469,1.67,1.776,4.358,0.475,6.163c-0.749,1.039-1.86,1.657-3.036,2.21
							c-0.951,0.447-1.944,0.851-2.827,1.393c-2.443,1.5-4.031,4.121-4.859,6.866c-0.828,2.745-0.979,5.641-1.124,8.505
							l-0.046,0.554l-6.021-3.341C369.953,303.435,370.827,298.093,372.681,293.323z"/>
						<path style="opacity:0.2;fill:#FFFFFF;" d="M372.681,293.323c0.806-2.074,1.821-4.096,3.292-5.766
							c1.471-1.669,3.436-2.97,5.631-3.336c2.194-0.366,4.609,0.302,6.079,1.973c1.469,1.67,1.776,4.358,0.475,6.163
							c-0.749,1.039-1.86,1.657-3.036,2.21c-0.951,0.447-1.944,0.851-2.827,1.393c-2.443,1.5-4.031,4.121-4.859,6.866
							c-0.828,2.745-0.979,5.641-1.124,8.505l-0.046,0.554l-6.021-3.341C369.953,303.435,370.827,298.093,372.681,293.323z"/>
					</g>
				</g>
			</g>
			<path style="opacity:0.1;" d="M444.008,214.47c-0.38-0.988-1.126-1.789-1.906-2.505c-2.914-2.676-6.533-4.459-10.377-5.272
				c-16.473-8.137-50.123-22.715-50.123-22.715c-0.438,0.225-0.86,0.485-1.271,0.769c0.412-0.282,0.833-0.543,1.271-0.769
				c-12.486-5.173-16.328-1.035-18.988,1.773c-2.66,2.808-3.842,9.458-2.66,19.065c1.182,9.606,5.338,34.157-4.582,43.893
				c-7.98,7.833-38.129-1.035-38.129-1.035v0c-5.394-2.955-12.562,1.182-7.886,7.833c4.676,6.65,7.184,4.988,7.179,21.942
				l-4.761,2.443c-0.966,0.543-1.773,1.357-2.418,2.337c-2.909,4.42-2.421,12.338,2.75,15.287l51.836,27.534
				c3.483,1.85,7.649,1.891,11.168,0.109l36.313-18.392c4.648-2.354,8.079-6.569,9.44-11.599l20.791-76.81
				c0.741-0.059,1.485-0.334,1.976-0.89C444.333,216.673,444.388,215.458,444.008,214.47z M419.557,285.887
				c-0.13,0.26-0.276,0.509-0.417,0.761C419.281,286.396,419.427,286.146,419.557,285.887z M418.678,287.441
				c-0.176,0.28-0.364,0.549-0.554,0.819C418.314,287.991,418.502,287.72,418.678,287.441z M378.865,185.928
				c-0.327,0.301-0.647,0.617-0.956,0.955C378.219,186.546,378.537,186.228,378.865,185.928z M380.044,184.961
				c-0.321,0.235-0.637,0.48-0.942,0.749C379.408,185.443,379.723,185.195,380.044,184.961z M376.754,188.276
				c-0.246,0.328-0.484,0.67-0.717,1.022c0.544-0.823,1.124-1.583,1.743-2.273C377.427,187.421,377.084,187.836,376.754,188.276z
				 M371.995,198.489c-0.855,2.923-1.483,6.07-1.906,9.271C370.511,204.557,371.14,201.413,371.995,198.489z M375.994,189.364
				c-0.232,0.354-0.458,0.718-0.676,1.093C375.536,190.081,375.762,189.717,375.994,189.364z M375.312,190.467
				c-1.35,2.323-2.447,5.05-3.313,8.005C372.865,195.515,373.962,192.791,375.312,190.467z M370.064,207.945
				c-0.061,0.471-0.117,0.944-0.17,1.417C369.946,208.888,370.003,208.416,370.064,207.945z M369.861,209.666
				c-0.049,0.458-0.094,0.917-0.135,1.375C369.766,210.582,369.812,210.124,369.861,209.666z M369.699,211.354
				c-0.04,0.467-0.077,0.934-0.109,1.4C369.622,212.288,369.66,211.821,369.699,211.354z M369.586,212.832
				c-0.097,1.457-0.152,2.906-0.171,4.333C369.434,215.738,369.489,214.289,369.586,212.832z M369.408,217.713
				c-0.002,0.345,0,0.687,0.002,1.028C369.407,218.4,369.405,218.058,369.408,217.713z M371,232.656
				c-0.035-0.13-0.068-0.268-0.103-0.401C370.932,232.388,370.965,232.526,371,232.656z M370.695,231.43
				c-0.038-0.163-0.073-0.331-0.109-0.498C370.622,231.1,370.658,231.268,370.695,231.43z M370.419,230.119
				c-0.035-0.18-0.069-0.362-0.102-0.547C370.35,229.757,370.385,229.939,370.419,230.119z M370.174,228.723
				c-0.031-0.19-0.062-0.379-0.09-0.573C370.112,228.344,370.143,228.533,370.174,228.723z M369.956,227.223
				c-0.024-0.185-0.05-0.366-0.073-0.553C369.906,226.857,369.931,227.038,369.956,227.223z M369.735,225.306
				c-0.021-0.216-0.039-0.437-0.058-0.657C369.696,224.868,369.714,225.089,369.735,225.306z M369.593,223.625
				c-0.019-0.259-0.033-0.523-0.049-0.786C369.56,223.101,369.574,223.366,369.593,223.625z M369.497,222.02
				c-0.014-0.29-0.026-0.582-0.037-0.876C369.472,221.438,369.483,221.731,369.497,222.02z M369.436,220.384
				c-0.008-0.312-0.015-0.626-0.02-0.941C369.421,219.758,369.427,220.071,369.436,220.384z M390.794,281.95L390.794,281.95
				l-28.874-14.854h0L390.794,281.95z M414.031,292.441c-0.395,0.292-0.797,0.576-1.217,0.838
				C413.234,293.017,413.636,292.733,414.031,292.441z M414.308,292.241c0.349-0.268,0.682-0.553,1.01-0.844
				C414.99,291.688,414.657,291.973,414.308,292.241z M415.698,291.056c0.292-0.273,0.571-0.559,0.844-0.85
				C416.269,290.498,415.989,290.782,415.698,291.056z M417.667,288.884c-0.223,0.289-0.455,0.569-0.694,0.844
				C417.213,289.453,417.445,289.172,417.667,288.884z M420.019,284.858c0.09-0.21,0.189-0.415,0.271-0.629
				C420.209,284.443,420.109,284.647,420.019,284.858z"/>
		</g>
		<path style="fill:#37474F;" d="M353.571,313.887c5.946-2.561,10.98-7.185,14.035-12.892c3.055-5.708,4.575-10.722,3.409-17.09
			l-46.559-18.324c-1.443,13.857-14.18,22.934-14.18,22.934L353.571,313.887z"/>
		<g>
			<g>
				<g>
					<path style="fill:#FFA8A7;" d="M302.771,368.54c-0.019,3.75,0.124,9.237,0.124,9.237l2.509,0.138
						c2.432,0.134,4.55,1.708,5.379,3.999l0.057,0.157c0.431,1.191,1.722,1.832,2.931,1.455l0,0
						c0.628-0.196,1.146-0.644,1.431-1.237l1.203-12.286L302.771,368.54z"/>
					<path style="fill:#FAFAFA;" d="M299.215,405.982c-6.572,2.807-16.636,3.354-20.812-3.355v1.816
						c4.176,6.709,14.24,6.161,20.812,3.355c6.572-2.807,5.134-7.394,11.022-9.858c3.765-1.438,5.751-3.628,5.751-3.628
						c0.023-0.535,0.114-1.206,0.205-1.98c-1.056,0.958-3.272,2.769-5.956,3.793C304.35,398.588,305.788,403.175,299.215,405.982z"
						/>
					<path style="fill:#BA68C8;" d="M316.194,386.369c-0.301-1.977-0.157-3.187,0.033-3.876c0.163-0.589,0.046-1.214-0.299-1.718
						l-0.527-0.528l-0.2,2.044c-0.284,0.593-0.803,1.041-1.431,1.237c-1.209,0.377-2.5-0.264-2.931-1.455l-0.057-0.157
						c-0.829-2.291-2.946-3.865-5.379-3.999l-2.55-0.141c-0.78-0.043-1.498,0.408-1.797,1.129
						c-2.623,6.325-9.218,13.353-14.302,16.57c-3.731-0.086-8.352,3.012-8.352,6.778v0.375c4.176,6.709,14.24,6.161,20.812,3.355
						c6.572-2.807,5.134-7.394,11.022-9.858c2.684-1.025,4.9-2.835,5.956-3.793C316.376,390.775,316.559,388.768,316.194,386.369z"
						/>
					<path style="opacity:0.2;" d="M316.194,386.369c-0.301-1.977-0.157-3.187,0.033-3.876c0.163-0.589,0.046-1.214-0.299-1.718
						l-0.527-0.528l-0.2,2.044c-0.284,0.593-0.803,1.041-1.431,1.237c-1.209,0.377-2.5-0.264-2.931-1.455l-0.057-0.157
						c-0.829-2.291-2.946-3.865-5.379-3.999l-2.55-0.141c-0.78-0.043-1.498,0.408-1.797,1.129
						c-2.623,6.325-9.218,13.353-14.302,16.57c-3.731-0.086-8.352,3.012-8.352,6.778v0.375c4.176,6.709,14.24,6.161,20.812,3.355
						c6.572-2.807,5.134-7.394,11.022-9.858c2.684-1.025,4.9-2.835,5.956-3.793C316.376,390.775,316.559,388.768,316.194,386.369z"
						/>
					<path style="opacity:0.25;fill:#FFFFFF;" d="M316.194,386.369c-0.301-1.977-0.157-3.187,0.033-3.876
						c0.163-0.589,0.046-1.214-0.299-1.718l-0.527-0.528l-0.2,2.044c-0.284,0.593-0.803,1.041-1.431,1.237
						c-1.209,0.377-2.5-0.264-2.931-1.455l-0.057-0.157c-0.829-2.291-2.946-3.865-5.379-3.999l-2.55-0.141
						c-0.78-0.043-1.498,0.408-1.797,1.129c-2.623,6.325-9.218,13.353-14.302,16.57c-3.731-0.086-8.352,3.012-8.352,6.778v0.375
						c4.176,6.709,14.24,6.161,20.812,3.355c6.572-2.807,5.134-7.394,11.022-9.858c2.684-1.025,4.9-2.835,5.956-3.793
						C316.376,390.775,316.559,388.768,316.194,386.369z"/>
					<g>
						<path style="fill:#FFFFFF;" d="M303.47,391.558c0.288,0.351,0.812,0.393,1.163,0.105c0.347-0.285,0.418-0.801,0.136-1.15
							c-2.652-3.29-5.858-4-8.583-3.77c-0.351,0.434-0.709,0.863-1.076,1.284C298.207,387.858,300.979,388.523,303.47,391.558z"/>
						<path style="fill:#FFFFFF;" d="M306.063,388.656c0.288,0.351,0.812,0.393,1.163,0.105c0.347-0.284,0.418-0.801,0.136-1.15
							c-2.637-3.272-6.006-4.119-8.957-3.866c-0.314,0.47-0.646,0.936-0.986,1.4C300.63,384.921,303.497,385.529,306.063,388.656z"
							/>
						<path style="fill:#FFFFFF;" d="M300.776,394.394c0.288,0.351,0.812,0.393,1.164,0.105c0.347-0.285,0.417-0.801,0.136-1.15
							c-2.579-3.2-5.682-3.959-8.357-3.786c-0.424,0.447-0.854,0.878-1.285,1.3C295.523,390.698,298.29,391.365,300.776,394.394z"/>
						<path style="fill:#FFFFFF;" d="M286.755,395.474c-3.731-0.086-8.352,3.012-8.352,6.778v0.375
							c4.114,6.61,13.937,6.171,20.511,3.473C298.408,397.069,289.738,395.441,286.755,395.474z"/>
						<path style="fill:#FFFFFF;" d="M298.004,397.103c0.288,0.351,0.812,0.393,1.163,0.105c0.347-0.285,0.418-0.801,0.136-1.15
							c-2.585-3.208-5.698-3.963-8.378-3.785c-0.525,0.467-1.047,0.905-1.565,1.319
							C292.572,393.367,295.438,393.976,298.004,397.103z"/>
					</g>
				</g>
				<path style="fill:#37474F;" d="M322.317,345.654c-0.521,8.305-2.64,14.322-4.267,25.644c0,0-9.943,2.968-16.137-1.363
					l-0.258-17.439L322.317,345.654z"/>
			</g>
			<g>
				<g>
					<path style="fill:#FFA8A7;" d="M267.524,355.847c-0.836,3.633-2.497,8.474-2.497,8.474l2.509,0.138
						c2.432,0.134,4.55,1.708,5.379,3.999l0.057,0.158c0.431,1.19,1.722,1.832,2.931,1.455l0,0c0.628-0.196,1.146-0.644,1.431-1.237
						l3.781-9.916L267.524,355.847z"/>
					<path style="fill:#FAFAFA;" d="M261.347,392.526c-6.572,2.807-16.636,3.354-20.812-3.355v1.816
						c4.176,6.709,14.24,6.162,20.812,3.355c6.572-2.807,5.134-7.394,11.022-9.858c3.765-1.438,5.751-3.629,5.751-3.629
						c0.023-0.535,0.114-1.206,0.205-1.98c-1.056,0.958-3.272,2.768-5.956,3.793C266.482,385.132,267.919,389.719,261.347,392.526z"
						/>
					<path style="fill:#BA68C8;" d="M278.325,372.913c-0.301-1.977-0.157-3.187,0.033-3.876c0.163-0.589,0.046-1.214-0.299-1.719
						l-0.096-0.139l-0.631,1.655c-0.284,0.593-0.803,1.041-1.431,1.237c-1.209,0.377-2.5-0.264-2.931-1.455l-0.057-0.158
						c-0.829-2.291-2.946-3.865-5.379-3.999l-2.55-0.141c-0.78-0.043-1.498,0.408-1.797,1.129
						c-2.623,6.325-9.218,13.353-14.302,16.57c-3.731-0.085-8.352,3.012-8.352,6.778v0.375c4.176,6.709,14.24,6.161,20.812,3.355
						c6.572-2.807,5.134-7.394,11.022-9.858c2.684-1.025,4.9-2.835,5.956-3.793C278.508,377.319,278.691,375.312,278.325,372.913z"
						/>
					<path style="opacity:0.2;" d="M278.325,372.913c-0.301-1.977-0.157-3.187,0.033-3.876c0.163-0.589,0.046-1.214-0.299-1.719
						l-0.096-0.139l-0.631,1.655c-0.284,0.593-0.803,1.041-1.431,1.237c-1.209,0.377-2.5-0.264-2.931-1.455l-0.057-0.158
						c-0.829-2.291-2.946-3.865-5.379-3.999l-2.55-0.141c-0.78-0.043-1.498,0.408-1.797,1.129
						c-2.623,6.325-9.218,13.353-14.302,16.57c-3.731-0.085-8.352,3.012-8.352,6.778v0.375c4.176,6.709,14.24,6.161,20.812,3.355
						c6.572-2.807,5.134-7.394,11.022-9.858c2.684-1.025,4.9-2.835,5.956-3.793C278.508,377.319,278.691,375.312,278.325,372.913z"
						/>
					<path style="opacity:0.25;fill:#FFFFFF;" d="M278.325,372.913c-0.301-1.977-0.157-3.187,0.033-3.876
						c0.163-0.589,0.046-1.214-0.299-1.719l-0.096-0.139l-0.631,1.655c-0.284,0.593-0.803,1.041-1.431,1.237
						c-1.209,0.377-2.5-0.264-2.931-1.455l-0.057-0.158c-0.829-2.291-2.946-3.865-5.379-3.999l-2.55-0.141
						c-0.78-0.043-1.498,0.408-1.797,1.129c-2.623,6.325-9.218,13.353-14.302,16.57c-3.731-0.085-8.352,3.012-8.352,6.778v0.375
						c4.176,6.709,14.24,6.161,20.812,3.355c6.572-2.807,5.134-7.394,11.022-9.858c2.684-1.025,4.9-2.835,5.956-3.793
						C278.508,377.319,278.691,375.312,278.325,372.913z"/>
					<g>
						<path style="fill:#FFFFFF;" d="M265.601,378.102c0.288,0.351,0.812,0.393,1.163,0.105c0.347-0.285,0.418-0.801,0.136-1.15
							c-2.652-3.29-5.858-4-8.583-3.77c-0.351,0.434-0.709,0.863-1.076,1.284C260.339,374.402,263.111,375.067,265.601,378.102z"/>
						<path style="fill:#FFFFFF;" d="M268.195,375.201c0.288,0.351,0.812,0.393,1.164,0.105c0.347-0.284,0.417-0.801,0.136-1.15
							c-2.637-3.272-6.006-4.119-8.957-3.866c-0.314,0.47-0.646,0.936-0.986,1.4C262.762,371.465,265.628,372.074,268.195,375.201z"
							/>
						<path style="fill:#FFFFFF;" d="M262.908,380.939c0.288,0.351,0.812,0.393,1.163,0.105c0.347-0.284,0.418-0.801,0.136-1.15
							c-2.579-3.2-5.682-3.959-8.357-3.786c-0.424,0.447-0.854,0.878-1.285,1.3C257.655,377.241,260.422,377.909,262.908,380.939z"
							/>
						<path style="fill:#FFFFFF;" d="M248.887,382.019c-3.731-0.085-8.352,3.012-8.352,6.778v0.375
							c4.114,6.61,13.937,6.171,20.511,3.473C260.539,383.614,251.87,381.985,248.887,382.019z"/>
						<path style="fill:#FFFFFF;" d="M260.136,383.647c0.288,0.351,0.812,0.393,1.163,0.105c0.347-0.285,0.418-0.801,0.136-1.15
							c-2.585-3.208-5.698-3.963-8.378-3.785c-0.525,0.467-1.047,0.905-1.565,1.319C254.703,379.911,257.569,380.52,260.136,383.647
							z"/>
					</g>
				</g>
				<path style="fill:#37474F;" d="M290.513,336.331c-1.92,8.097-5.027,13.669-8.547,24.552c0,0-10.302,1.242-15.673-4.076
					l4.623-28.432L290.513,336.331z"/>
			</g>
		</g>
		<g>
			<g>
				<polygon style="fill:#455A64;" points="165.539,277.845 165.539,363.625 168.572,361.871 168.572,276.09 				"/>
				<polygon style="fill:#37474F;" points="165.539,277.845 165.539,363.625 162.506,361.871 162.506,276.09 				"/>
				<polygon style="fill:#455A64;" points="168.572,300.719 239.566,259.731 239.566,256.472 168.572,297.46 				"/>
				<polygon style="fill:#37474F;" points="168.572,294.017 236.533,254.72 239.566,256.472 168.572,297.46 				"/>
			</g>
			<g>
				<polygon style="fill:#455A64;" points="379.812,316.163 379.812,401.944 382.845,400.189 382.845,314.409 				"/>
				<polygon style="fill:#37474F;" points="379.812,316.163 379.812,401.944 376.779,400.189 376.779,314.409 				"/>
				<polygon style="fill:#455A64;" points="305.786,358.918 305.786,444.698 308.819,442.943 308.819,357.163 				"/>
				<polygon style="fill:#37474F;" points="305.786,358.918 305.786,444.698 302.753,442.943 302.753,357.163 				"/>
				<polygon style="fill:#455A64;" points="308.819,381.792 379.812,340.804 379.812,337.544 308.819,378.533 				"/>
				<polygon style="fill:#37474F;" points="308.819,375.09 376.779,335.793 379.812,337.544 308.819,378.533 				"/>
			</g>
			<g style="opacity:0.2;">
				<polygon style="fill:#FFFFFF;" points="379.812,316.163 379.812,401.944 382.845,400.189 382.845,314.409 				"/>
				<polygon style="fill:#FFFFFF;" points="379.812,316.163 379.812,401.944 376.779,400.189 376.779,314.409 				"/>
				<polygon style="fill:#FFFFFF;" points="305.786,358.918 305.786,444.698 308.819,442.943 308.819,357.163 				"/>
				<polygon style="fill:#FFFFFF;" points="305.786,358.918 305.786,444.698 302.753,442.943 302.753,357.163 				"/>
				<polygon style="fill:#FFFFFF;" points="308.819,381.792 379.812,340.804 379.812,337.544 308.819,378.533 				"/>
				<polygon style="fill:#FFFFFF;" points="308.819,375.09 376.779,335.793 379.812,337.544 308.819,378.533 				"/>
			</g>
			<g style="opacity:0.2;">
				<polygon style="fill:#FFFFFF;" points="165.539,277.845 165.539,363.625 168.572,361.871 168.572,276.09 				"/>
				<polygon style="fill:#FFFFFF;" points="165.539,277.845 165.539,363.625 162.506,361.871 162.506,276.09 				"/>
				<polygon style="fill:#FFFFFF;" points="168.572,300.719 239.566,259.731 239.566,256.472 168.572,297.46 				"/>
				<polygon style="fill:#FFFFFF;" points="168.572,294.017 236.533,254.72 239.566,256.472 168.572,297.46 				"/>
			</g>
			<g>
				<polygon style="fill:#455A64;" points="305.786,350.635 162.501,268.054 239.561,223.544 382.845,306.125 				"/>
				<polygon style="fill:#455A64;" points="305.786,358.918 162.501,276.091 162.501,268.054 305.786,350.635 				"/>
				<polygon style="fill:#455A64;" points="305.786,350.625 382.845,306.116 382.845,314.409 305.786,358.918 				"/>
				<polygon style="opacity:0.3;fill:#FFFFFF;" points="305.786,350.635 162.501,268.054 239.561,223.544 382.845,306.125 				"/>
				<polygon style="opacity:0.1;fill:#FFFFFF;" points="305.786,350.625 382.845,306.116 382.845,314.409 305.786,358.918 				"/>
				<polygon style="opacity:0.2;fill:#FFFFFF;" points="305.786,358.918 162.501,276.091 162.501,268.054 305.786,350.635 				"/>
			</g>
		</g>
		<g>
			<g>
				<polygon style="fill:#E6E6E6;" points="246.745,243.196 235.258,268.321 205.267,263.671 216.754,238.546 				"/>
			</g>
			<g>
				<polygon style="fill:#F0F0F0;" points="258.011,248.062 232.046,269.241 206.732,258.805 232.691,237.63 				"/>
			</g>
			<g>
				<polygon style="fill:#FFFFFF;" points="263.327,240.985 278.884,256.56 240.042,269.535 224.472,253.96 				"/>
			</g>
		</g>
		<g>
			<path style="fill:#E0E0E0;" d="M240.194,283.416l31.441-18.271c1.777-1.033,4.664-1.033,6.452,0l51.872,29.949
				c0.851,0.492,1.288,1.129,1.333,1.774l0.014,0.002v1.995l-0.029-0.004c-0.004,0.139,0.001,0.278-0.04,0.415
				c-0.004,0.014-0.004,0.028-0.009,0.041c-0.049,0.15-0.127,0.297-0.221,0.441c-0.01,0.016-0.015,0.032-0.026,0.048
				c-0.104,0.15-0.236,0.294-0.389,0.432c-0.009,0.008-0.015,0.017-0.024,0.026c-0.166,0.146-0.358,0.285-0.58,0.413l-31.44,18.271
				c-0.275,0.16-0.582,0.286-0.902,0.397c-0.113,0.039-0.229,0.073-0.346,0.106c-0.151,0.042-0.301,0.082-0.458,0.114
				c-0.184,0.038-0.37,0.072-0.559,0.096c-0.045,0.006-0.088,0.014-0.133,0.019c-0.254,0.027-0.512,0.04-0.77,0.042
				c-0.041,0-0.082,0.001-0.123,0c-0.254-0.002-0.508-0.016-0.759-0.042c-0.038-0.004-0.076-0.008-0.114-0.013
				c-0.249-0.03-0.494-0.072-0.734-0.126c-0.044-0.01-0.088-0.022-0.132-0.032c-0.217-0.054-0.428-0.119-0.632-0.193
				c-0.038-0.014-0.077-0.024-0.114-0.038c-0.245-0.095-0.479-0.203-0.696-0.328l-51.872-29.948
				c-0.224-0.129-0.42-0.269-0.588-0.416c-0.059-0.051-0.096-0.108-0.147-0.161c-0.097-0.099-0.2-0.196-0.273-0.3
				c-0.045-0.064-0.065-0.131-0.101-0.196c-0.054-0.098-0.118-0.195-0.151-0.295c-0.024-0.071-0.023-0.143-0.036-0.215
				c-0.019-0.097-0.048-0.194-0.048-0.292v-1.84C238.86,284.609,239.303,283.934,240.194,283.416z"/>
			<path style="opacity:0.3;" d="M331.292,296.867c0.013,0.19,0.002,0.381-0.055,0.568c-0.004,0.014-0.004,0.028-0.009,0.041
				c-0.049,0.15-0.127,0.297-0.221,0.441c-0.01,0.016-0.015,0.032-0.026,0.047c-0.104,0.15-0.236,0.294-0.389,0.433
				c-0.009,0.008-0.015,0.017-0.024,0.025c-0.166,0.146-0.358,0.285-0.58,0.413l-31.44,18.271c-0.275,0.16-0.582,0.286-0.902,0.397
				c-0.113,0.039-0.229,0.073-0.346,0.106c-0.151,0.042-0.301,0.082-0.458,0.114c-0.184,0.038-0.37,0.072-0.559,0.096
				c-0.045,0.005-0.088,0.014-0.133,0.018c-0.255,0.027-0.512,0.04-0.77,0.042c-0.041,0-0.082,0.001-0.123,0.001
				c-0.254-0.002-0.508-0.016-0.759-0.043c-0.038-0.004-0.076-0.008-0.114-0.013c-0.249-0.03-0.494-0.072-0.734-0.126
				c-0.044-0.01-0.088-0.022-0.132-0.032c-0.217-0.054-0.428-0.119-0.632-0.193c-0.038-0.013-0.077-0.024-0.114-0.038
				c-0.245-0.095-0.479-0.203-0.696-0.328l-51.872-29.948c-0.224-0.129-0.42-0.269-0.588-0.416
				c-0.059-0.051-0.096-0.108-0.147-0.161c-0.097-0.099-0.2-0.196-0.273-0.3c-0.045-0.064-0.065-0.131-0.101-0.196
				c-0.054-0.098-0.118-0.195-0.151-0.295c-0.024-0.071-0.023-0.143-0.036-0.215c-0.019-0.097-0.048-0.194-0.048-0.292v1.84
				c0,0.098,0.029,0.194,0.048,0.292c0.014,0.072,0.013,0.144,0.036,0.215c0.034,0.1,0.097,0.197,0.151,0.295
				c0.036,0.065,0.056,0.132,0.101,0.196c0.073,0.104,0.177,0.201,0.273,0.3c0.052,0.053,0.088,0.11,0.147,0.161
				c0.168,0.147,0.364,0.286,0.588,0.416l51.872,29.948c0.216,0.125,0.451,0.234,0.696,0.328c0.037,0.014,0.076,0.025,0.114,0.038
				c0.204,0.074,0.415,0.139,0.632,0.193c0.044,0.011,0.088,0.022,0.132,0.032c0.24,0.054,0.485,0.096,0.734,0.126
				c0.038,0.005,0.076,0.009,0.114,0.013c0.251,0.026,0.505,0.04,0.759,0.042c0.041,0,0.082,0,0.123,0
				c0.258-0.002,0.516-0.015,0.77-0.042c0.045-0.005,0.089-0.013,0.133-0.019c0.189-0.024,0.375-0.058,0.559-0.096
				c0.156-0.032,0.307-0.072,0.458-0.114c0.117-0.033,0.233-0.067,0.346-0.106c0.319-0.111,0.627-0.237,0.902-0.397l31.44-18.271
				c0.221-0.128,0.414-0.267,0.58-0.413c0.009-0.008,0.015-0.018,0.024-0.026c0.153-0.138,0.285-0.283,0.389-0.432
				c0.011-0.016,0.016-0.032,0.026-0.048c0.094-0.144,0.172-0.291,0.221-0.441c0.005-0.014,0.005-0.028,0.009-0.041
				c0.041-0.137,0.036-0.276,0.04-0.415l0.029,0.004v-1.995L331.292,296.867z"/>
			<path style="fill:#E0E0E0;" d="M243.264,285.284l50.393,29.095c0.052,0.031,0.108,0.057,0.198,0.095l0.109,0.037
				c0.094,0.035,0.192,0.066,0.394,0.115c0.135,0.032,0.272,0.054,0.277,0.058l0.191,0.018c0.134,0.014,0.28,0.021,0.491,0.025
				h0.044c0.155-0.002,0.311-0.009,0.516-0.034c0.108-0.014,0.212-0.034,0.329-0.058c0.078-0.016,0.408-0.109,0.408-0.109
				c0.12-0.041,0.24-0.08,0.349-0.145l16.21-9.425l-52.054-30.053L243.264,285.284z"/>
			<path style="fill:#263238;" d="M295.375,314.729c-0.023,0-0.036-0.001-0.057-0.001H295.3L295.375,314.729z"/>
			<path style="fill:#E0E0E0;" d="M291.205,277.281l-9.48,5.576c-0.633,0.373-0.63,1.29,0.007,1.657l14.176,8.185
				c0.492,0.284,1.098,0.281,1.587-0.007l9.48-5.576c0.633-0.372,0.629-1.29-0.007-1.657l-14.175-8.185
				C292.301,276.991,291.695,276.993,291.205,277.281z"/>
			<path style="opacity:0.2;" d="M243.264,285.284l50.393,29.095c0.052,0.031,0.108,0.057,0.198,0.095l0.109,0.037
				c0.094,0.035,0.192,0.066,0.394,0.115c0.135,0.032,0.272,0.054,0.277,0.058l0.191,0.018c0.134,0.014,0.28,0.021,0.491,0.025
				h0.044c0.155-0.002,0.311-0.009,0.516-0.034c0.108-0.014,0.212-0.034,0.329-0.058c0.078-0.016,0.408-0.109,0.408-0.109
				c0.12-0.041,0.24-0.08,0.349-0.145l16.21-9.425l-52.054-30.053L243.264,285.284z"/>
			<path style="opacity:0.2;" d="M291.205,277.281l-9.48,5.576c-0.633,0.373-0.63,1.29,0.007,1.657l14.176,8.185
				c0.492,0.284,1.098,0.281,1.587-0.007l9.48-5.576c0.633-0.372,0.629-1.29-0.007-1.657l-14.175-8.185
				C292.301,276.991,291.695,276.993,291.205,277.281z"/>
		</g>
		<g>
			<path style="fill:#FFA8A7;" d="M316.199,233.368l-6.339,16.042l-25.021,10.309c-1.515,0.624-3.156,0.88-4.789,0.745l-9.629-0.791
				c-1.13-0.093-2.261,0.173-3.231,0.761l-5.514,3.34c-0.554,0.336-1.05,0.759-1.468,1.255l-2.699,3.198
				c-0.762,0.904-0.592,2.265,0.369,2.953l1.697,1.215c1.827,1.307,4.228,1.493,6.233,0.481l4.265-2.15l8.81,0.966v2.3l-2.387,2.045
				c-1.207,1.034-1.179,2.91,0.059,3.908l0,0c0,0,5.892-1.746,11.229-10.294l31.304-6.612c3.578-0.756,6.503-3.322,7.717-6.772
				l5.997-17.039L316.199,233.368z"/>
			<g>
				<path style="fill:#BA68C8;" d="M333.436,206.242c-4.259-0.481-6.834-0.307-10.881,6.493c-4.894,8.223-9.586,24.008-9.586,24.008
					c9.409,4.6,20.467,5.344,20.467,5.344C335.829,236.062,333.436,206.242,333.436,206.242z"/>
			</g>
			<g style="opacity:0.3;">
				<path style="fill:#FFFFFF;" d="M333.436,206.242c-4.259-0.481-6.834-0.307-10.881,6.493c-4.894,8.223-9.586,24.008-9.586,24.008
					c9.409,4.6,20.467,5.344,20.467,5.344C335.829,236.062,333.436,206.242,333.436,206.242z"/>
			</g>
		</g>
		<path style="fill:#BA68C8;" d="M367.795,213.717c-13.381-6.272-23.417-7.005-34.359-7.475
			c-16.378,10.542-10.245,19.323-9.966,33.401c0.235,11.86,2.447,19.763-2.695,30.709l31.745,18.296
			c9.205-0.107,16.602-2.282,19.596-4.184C376.298,245.497,375.073,216.722,367.795,213.717z"/>
		<path style="opacity:0.5;fill:#FFFFFF;" d="M367.795,213.717c-13.381-6.272-23.417-7.005-34.359-7.475
			c-16.378,10.542-10.245,19.323-9.966,33.401c0.235,11.86,2.447,19.763-2.695,30.709l31.745,18.296
			c9.205-0.107,16.602-2.282,19.596-4.184C376.298,245.497,375.073,216.722,367.795,213.717z"/>
		<g>
			<path style="fill:#FFA8A7;" d="M354.553,250.376l-3.973,17.702l-27.568,11.359c-1.669,0.688-3.477,0.969-5.276,0.821
				l-10.61-0.872c-1.245-0.102-2.491,0.191-3.56,0.839l-6.076,3.68c-0.611,0.37-1.157,0.837-1.617,1.383l-2.973,3.524
				c-0.84,0.995-0.652,2.496,0.407,3.254l1.87,1.338c2.012,1.44,4.658,1.645,6.867,0.53l4.699-2.369l7.708,1.394
				c3.488,0.631,7.087,0.037,10.188-1.682l1.618-0.897l33.623-7.102c4.4-0.929,7.859-4.33,8.863-8.714l4.486-19.588L354.553,250.376
				z"/>
			<g>
				<path style="fill:#BA68C8;" d="M367.795,213.717c16.029,5.994,12.382,20.239,6.47,42.805
					c-9.536,2.635-20.826-5.659-20.826-5.659C356.574,233.022,357.759,213.438,367.795,213.717z"/>
				<path style="opacity:0.3;fill:#FFFFFF;" d="M367.795,213.717c16.029,5.994,12.382,20.239,6.47,42.805
					c-9.536,2.635-20.826-5.659-20.826-5.659C356.574,233.022,357.759,213.438,367.795,213.717z"/>
			</g>
		</g>
		<g>
			<path style="fill:#E0E0E0;" d="M231.724,246.79l-0.014-0.005l1.241-0.62l0.002,0.009c0.424-0.177,0.925-0.182,1.388,0.087
				l52.231,30.368c1.641,0.954,2.764,2.596,3.059,4.471l5.37,34.147c0.117,0.746-0.294,1.367-0.877,1.652l0.022,0.004l-1.203,0.592
				l0-0.006c-0.415,0.158-0.897,0.15-1.343-0.109l-52.231-30.368c-1.641-0.954-2.764-2.596-3.059-4.471l-5.37-34.147
				C230.831,247.689,231.193,247.095,231.724,246.79z"/>
			<g>
				<path style="fill:#FFFFFF;" d="M260.209,278.037c2.531,1.461,4.843,4.802,5.183,7.466c0.34,2.664-1.419,3.654-3.95,2.193
					c-2.519-1.454-4.843-4.802-5.183-7.466C255.919,277.566,257.69,276.583,260.209,278.037z"/>
			</g>
			<path style="opacity:0.3;" d="M293.951,315.772l-5.37-34.147c-0.295-1.875-1.418-3.517-3.059-4.471l-52.231-30.368
				c-0.53-0.308-1.111-0.258-1.567,0.004l-0.014-0.005l1.241-0.62l0.002,0.009c0.424-0.177,0.925-0.182,1.388,0.087l52.231,30.368
				c1.641,0.954,2.764,2.596,3.059,4.471l5.37,34.147c0.117,0.746-0.294,1.367-0.877,1.652l0.022,0.004l-1.203,0.592l0-0.006
				C293.597,317.24,294.077,316.574,293.951,315.772z"/>
		</g>
		<g>
			<path style="fill:#37474F;" d="M324.002,189.407c-2.348-1.686-4.033-4.27-4.63-7.098c-0.597-2.828-0.1-5.873,1.366-8.365
				c-1.272-0.61-2.506-1.624-3.086-2.91c-0.558-1.239-0.281-2.806,0.667-3.779c0.948-0.973,2.507-1.291,3.76-0.766
				c-0.782-1.923,0.119-4.537,1.909-5.587c1.79-1.05,4.32-0.582,5.617,1.039c-0.086-1.321,0.83-2.592,2.088-3.006
				c1.258-0.413,2.641-0.185,3.893,0.244c1.252,0.429,2.433,1.052,3.695,1.451c2.131,0.675,4.405,0.689,6.635,0.846
				c2.23,0.158,4.533,0.494,6.409,1.709c1.877,1.215,3.533,4.054,2.521,6.5c0.631-0.802,1.642-1.378,2.662-1.412
				c1.02-0.034,2.046,0.401,2.73,1.159c-1.396,0.865-2.746,1.796-4.141,2.66c1.405-0.631,3.499,0.359,4.259,1.699
				c0.76,1.339,0.796,2.959,0.751,4.498c-0.172,5.848-1.238,11.664-3.086,17.215c-0.955,2.87-2.334,5.911-5.054,7.236
				L324.002,189.407z"/>
			<g>
				<path style="fill:#FFA8A7;" d="M338.803,203.226l0.614,6.863c0.048,0.534-0.122,1.048-0.388,1.513
					c-0.771,1.345-0.532,3.492,0.606,4.484c0.828,0.721,1.97,0.96,3.065,1.039c4.233,0.308,8.55-1.519,11.341-4.375
					c0.609-0.623,0.921-1.478,0.898-2.349l-0.45-17.402L338.803,203.226z"/>
				<path style="opacity:0.3;" d="M353.107,193.899l-14.304,9.327l0.544,6.086c3.325-0.779,6.671-1.739,9.302-3.879
					C351.996,202.711,353.738,198.162,353.107,193.899z"/>
			</g>
			<g>
				<path style="fill:#FFA8A7;" d="M323.21,175.266c-1.05,7.933-0.523,16.071,1.54,23.802c0.452,1.694,0.985,3.387,1.889,4.889
					c0.904,1.502,2.216,2.813,3.858,3.427c2.019,0.756,4.264,0.391,6.387,0.017c3.883-0.684,7.867-1.406,11.24-3.447
					c3.373-2.041,6.048-5.73,5.721-9.66c1.965,1.128,4.45,1.424,6.448,0.357c1.998-1.068,3.382-3.206,3.536-5.467
					c0.151-2.2-1.121-4.652-3.283-5.087c-1.321-0.266-2.702,0.262-3.758,1.099c-1.056,0.837-1.846,1.956-2.621,3.058
					c-0.369,0.525-0.755,1.066-1.305,1.396c-0.55,0.331-1.315,0.396-1.803-0.021c-0.534-0.456-0.544-1.262-0.513-1.963l0.228-4.981
					c0.036-0.784-0.405-1.498-1.105-1.854c-1.015-0.517-1.789-1.466-2.232-2.567c-0.383-0.953-0.548-1.969-0.631-2.997
					c-0.067-0.828-0.909-1.356-1.68-1.045C338.441,176.918,330.105,177.038,323.21,175.266z"/>
				<g>
					<polygon style="fill:#F28F8F;" points="334.167,187.347 329.687,194.888 335.028,195.891 					"/>
					<path style="fill:#F28F8F;" d="M340.177,198.49c-1.353,0.658-2.706,1.316-4.059,1.973c0.591,0.922,2.078,1.323,3.077,0.875
						C340.194,200.889,340.473,199.544,340.177,198.49z"/>
					<path style="opacity:0.3;" d="M340.177,198.49c-1.353,0.658-2.706,1.316-4.059,1.973c0.591,0.922,2.078,1.323,3.077,0.875
						C340.194,200.889,340.473,199.544,340.177,198.49z"/>
					<path style="fill:#F28F8F;" d="M337.786,201.471c0.488,0.086,0.991,0.055,1.409-0.133c0.784-0.352,1.119-1.256,1.086-2.139
						c-0.576,0.003-1.153,0.191-1.6,0.556C338.167,200.176,337.852,200.811,337.786,201.471z"/>
					<path style="fill:#263238;" d="M341.902,187.647c0.085,0.843-0.529,1.595-1.372,1.68c-0.843,0.085-1.595-0.529-1.68-1.372
						c-0.085-0.843,0.53-1.595,1.372-1.68C341.065,186.19,341.817,186.804,341.902,187.647z"/>
					<path style="fill:#263238;" d="M329.038,188.444c0.085,0.843-0.53,1.595-1.372,1.68c-0.843,0.085-1.595-0.53-1.68-1.372
						c-0.085-0.843,0.53-1.595,1.372-1.68C328.201,186.987,328.953,187.601,329.038,188.444z"/>
					<path style="fill:#263238;" d="M326.94,182.52c-1.049,0.893-2.098,1.787-3.147,2.68c-0.416-0.769-0.198-1.843,0.419-2.461
						C324.83,182.12,326.171,182.105,326.94,182.52z"/>
					<path style="fill:#263238;" d="M339.991,181.019c1.207,0.666,2.413,1.332,3.619,1.999c0.254-0.836-0.174-1.846-0.902-2.328
						C341.98,180.207,340.663,180.459,339.991,181.019z"/>
				</g>
			</g>
		</g>
	</g>
</g>
</svg>
